<?xml version="1.0" encoding="utf-8"?>
<!-- Generator: Adobe Illustrator 26.3.1, SVG Export Plug-In . SVG Version: 6.00 Build 0)  -->
<svg version="1.1" id="图层_1" xmlns="http://www.w3.org/2000/svg" xmlns:xlink="http://www.w3.org/1999/xlink" x="0px" y="0px"
	 viewBox="0 0 108 108" style="enable-background:new 0 0 108 108;" xml:space="preserve">
<g id="椭圆形">
	<path d="M54,108C24.2,108,0,83.8,0,54C0,24.2,24.2,0,54,0c29.8,0,54,24.2,54,54C108,83.8,83.8,108,54,108z M54,2
		C25.3,2,2,25.3,2,54s23.3,52,52,52s52-23.3,52-52S82.7,2,54,2z"/>
</g>
<g id="形状">
	<path d="M47.1,69.9c-0.8,0-1.7-0.3-2.3-0.9L31.9,56.1c-0.6-0.6-0.6-1.5,0-2.1s1.5-0.6,2.1,0l12.8,12.8c0.1,0.1,0.3,0.1,0.4,0
		L75.1,39c0.6-0.6,1.5-0.6,2.1,0c0.6,0.6,0.6,1.5,0,2.1L49.4,69C48.7,69.6,47.9,69.9,47.1,69.9z"/>
</g>
</svg>
