<?xml version="1.0" encoding="utf-8"?>
<!-- Generator: Adobe Illustrator 26.3.1, SVG Export Plug-In . SVG Version: 6.00 Build 0)  -->
<svg version="1.1" id="图层_1" xmlns="http://www.w3.org/2000/svg" xmlns:xlink="http://www.w3.org/1999/xlink" x="0px" y="0px"
	 viewBox="0 0 63 63" style="enable-background:new 0 0 63 63;" xml:space="preserve">
<style type="text/css">
	.st0{fill-rule:evenodd;clip-rule:evenodd;}
</style>
<path id="形状结合" class="st0" d="M32,25.4c0.6-0.6,1.5-0.6,2.1,0c0.6,0.6,0.6,1.5,0,2.1l-5.3,5.3l0,0l-5.6,5.6
	c-0.8,0.8-0.8,2-0.2,2.8l0.1,0.1c0.7,0.7,2,0.8,2.8,0.1l0.1-0.1l9.1-9.1l7.9-7.9c2.2-2.2,2.3-5.7,0.4-7.8l-0.2-0.2
	c-2.1-2.1-5.5-2.1-7.8,0l-0.2,0.2l-17,17c-3.5,3.5-3.7,9.2-0.4,12.7l0.2,0.2c3.5,3.5,9.1,3.4,12.7,0l0.2-0.2L44,33.2
	c0.6-0.6,1.5-0.6,2.1,0c0.6,0.6,0.6,1.5,0,2.1l-5.3,5.3l0,0l-7.6,7.6c-4.8,4.8-12.5,4.9-17.2,0.2S11.5,36,16.3,31.2l16.9-16.9
	c3.5-3.5,8.9-3.6,12.3-0.2c3.3,3.3,3.2,8.8-0.2,12.3l-17,17c-2,2-5.2,2.1-7.2,0.1c-2-2-1.9-5.2,0.1-7.2L32,25.4z"/>
</svg>
