<?xml version="1.0" encoding="utf-8"?>
<!-- Generator: Adobe Illustrator 26.3.1, SVG Export Plug-In . SVG Version: 6.00 Build 0)  -->
<svg version="1.1" id="图层_1" xmlns="http://www.w3.org/2000/svg" xmlns:xlink="http://www.w3.org/1999/xlink" x="0px" y="0px"
	 viewBox="0 0 63 63" style="enable-background:new 0 0 63 63;" xml:space="preserve">
<style type="text/css">
	.st0{fill-rule:evenodd;clip-rule:evenodd;}
</style>
<g>
	<path class="st0" d="M38.8,40.3c-0.5-0.5-1.4-0.5-1.9,0l-3.9,4l0-16.2c0-0.8-0.7-1.5-1.5-1.5S30,27.3,30,28.2l0,16.2l-3.9-4.1
		c-0.5-0.5-1.4-0.5-1.9,0c0,0,0,0,0,0c-0.5,0.6-0.5,1.5,0,2l6.4,6.6c0.3,0.3,0.6,0.4,0.9,0.4l0,0h0.1c0,0,0,0,0,0
		c0.3,0,0.7-0.1,0.9-0.4l6.4-6.6C39.4,41.8,39.4,40.9,38.8,40.3C38.8,40.3,38.8,40.3,38.8,40.3z"/>
	<path class="st0" d="M44.9,24.8c-0.7-6.2-6-11.1-12.4-11.1c-6.4,0-11.7,4.8-12.4,11h-0.6C13.7,24.7,9,29.4,9,35.2
		s4.7,10.5,10.5,10.5H20h0.5c0.8,0,1.5-0.7,1.5-1.5s-0.7-1.5-1.5-1.5H20h-0.5l-0.2,0c-4-0.1-7.3-3.4-7.3-7.5c0-4.1,3.4-7.5,7.5-7.5
		h2.4c0.5,0,0.9-0.4,1-0.9l0.2-1.8l0-0.3c0.7-4.6,4.7-8.1,9.4-8.1c4.8,0,8.9,3.7,9.4,8.4l0.2,1.6c0.1,0.5,0.4,0.8,0.9,0.9l1.5,0.2
		l0.2,0c3.6,0.6,6.2,3.7,6.2,7.4c0,4.1-3.4,7.5-7.5,7.5H43h-0.5c-0.8,0-1.5,0.7-1.5,1.5s0.7,1.5,1.5,1.5H43h0.5
		C49.3,45.7,54,41,54,35.2C54,29.8,50,25.5,44.9,24.8z"/>
</g>
</svg>
