<?xml version="1.0" encoding="utf-8"?>
<!-- Generator: Adobe Illustrator 26.3.1, SVG Export Plug-In . SVG Version: 6.00 Build 0)  -->
<svg version="1.1" id="图层_1" xmlns="http://www.w3.org/2000/svg" xmlns:xlink="http://www.w3.org/1999/xlink" x="0px" y="0px"
	 viewBox="0 0 63 63" style="enable-background:new 0 0 63 63;" xml:space="preserve">
<path id="形状结合" d="M49.5,48c0.8,0,1.5,0.7,1.5,1.5S50.3,51,49.5,51h-24c-0.8,0-1.5-0.7-1.5-1.5s0.7-1.5,1.5-1.5H49.5z
	 M49.6,13.5c1.8,1.8,1.8,4.6,0,6.4L24.2,45.3c-0.3,0.3-0.7,0.6-1.2,0.8l-8.6,3.9c-0.5,0.2-1.1,0-1.3-0.5c-0.1-0.3-0.1-0.6,0-0.8
	l3.9-8.6c0.2-0.4,0.5-0.8,0.8-1.2l25.4-25.4C45,11.7,47.8,11.7,49.6,13.5z M41.4,19.5L19.9,41c-0.1,0.1-0.1,0.1-0.1,0.2l-0.1,0.1
	L18,45.1l3.7-1.7c0.1,0,0.1-0.1,0.2-0.1l0.1-0.1l21.5-21.5L41.4,19.5z M45.4,15.5l-0.1,0.1l-1.8,1.8l2.1,2.1l1.8-1.8
	c0.6-0.6,0.6-1.5,0-2.1C46.9,15.1,46,15,45.4,15.5z"/>
</svg>
