<?xml version="1.0" encoding="utf-8"?>
<!-- Generator: Adobe Illustrator 26.3.1, SVG Export Plug-In . SVG Version: 6.00 Build 0)  -->
<svg version="1.1" id="图层_1" xmlns="http://www.w3.org/2000/svg" xmlns:xlink="http://www.w3.org/1999/xlink" x="0px" y="0px"
	 viewBox="0 0 63 63" style="enable-background:new 0 0 63 63;" xml:space="preserve">
<path id="形状" d="M34.3,12.4l1.2,0.9l1.8,1.3l4.1,2.9l9,6.4c0.4,0.3,0.7,0.8,0.6,1.3v0.7c0,0.1,0,0.2,0,0.3L51,47
	c0,2.2-1.8,4-4,4H16c-2.2,0-4-1.8-4-4V24.9c0-0.4,0.2-0.8,0.6-1.1l0.4-0.3l7.4-5.2l1.7-1.2l1.9-1.3l1.6-1.1l1.1-0.8l1-0.7l0.9-0.7
	l0,0C30.3,11.2,32.6,11.1,34.3,12.4z M15,28.9L15,47c0,0.5,0.4,0.9,0.9,1l0.1,0h31c0.5,0,0.9-0.4,1-0.9l0-0.1l0-18.1l-6.6,4.7
	l-4.1,2.9l-1.8,1.3l-1.2,0.9c-1.8,1.3-4.1,1.2-5.9-0.1l-0.3-0.2l-0.6-0.4l-1-0.7l-1.1-0.8L24,35.1l-1.9-1.3l-1.7-1.2L15,28.9z
	 M30.3,15L30,15.2l-0.7,0.5l-1.1,0.8l-1.6,1.2l-2.2,1.6l-3.7,2.6l-5.4,3.7l5.4,3.7l3.7,2.6l2.2,1.6l1.6,1.2l1.1,0.8l0.7,0.5l0.3,0.2
	c0.7,0.5,1.5,0.6,2.1,0.2l0.1-0.1l0.6-0.4l0.9-0.7l2.2-1.6l3.1-2.2l8.3-5.8l-8.3-5.8l-3.1-2.2l-2.2-1.6l-0.9-0.7l-0.6-0.4
	C31.9,14.4,31,14.4,30.3,15z"/>
</svg>
