<?xml version="1.0" encoding="utf-8"?>
<!-- Generator: Adobe Illustrator 26.3.1, SVG Export Plug-In . SVG Version: 6.00 Build 0)  -->
<svg version="1.1" id="图层_1" xmlns="http://www.w3.org/2000/svg" xmlns:xlink="http://www.w3.org/1999/xlink" x="0px" y="0px"
	 viewBox="0 0 63 63" style="enable-background:new 0 0 63 63;" xml:space="preserve">
<g>
	<circle cx="50" cy="19" r="4"/>
	<path d="M51,25.9L51,44l0,0.1c-0.1,0.5-0.5,0.9-1,0.9H13l-0.1,0c-0.5-0.1-0.9-0.5-0.9-1V22.8l16.3,10.8c2,1.3,4.4,1.4,6.4,0.1
		l13-8.2c-1.1-0.4-2-1-2.8-1.8l-11.8,7.5c-0.9,0.6-2.1,0.5-3.1-0.1L12,19.2V19l0-0.1c0.1-0.5,0.5-0.9,1-0.9l30.1,0
		c0.2-1.1,0.6-2.1,1.2-3L13,15c-2.2,0-4,1.8-4,4v25c0,2.2,1.8,4,4,4h37c2.2,0,4-1.8,4-4l0-19.3C53.1,25.4,52.1,25.8,51,25.9z"/>
</g>
</svg>
