<?xml version="1.0" encoding="utf-8"?>
<!-- Generator: Adobe Illustrator 26.2.1, SVG Export Plug-In . SVG Version: 6.00 Build 0)  -->
<svg version="1.1" id="图层_1" xmlns="http://www.w3.org/2000/svg" xmlns:xlink="http://www.w3.org/1999/xlink" x="0px" y="0px"
	 viewBox="0 0 63 63" style="enable-background:new 0 0 63 63;" xml:space="preserve">
<g id="星形">
	<path d="M20.5,48.5c-0.2,0-0.3,0-0.5-0.1c-0.5-0.1-0.8-0.5-1-0.9c-0.2-0.3-0.2-0.7-0.2-1.1l1.9-10.9c0.1-0.3-0.1-0.7-0.3-0.9
		l-7.9-7.7c-0.3-0.3-0.5-0.8-0.5-1.2c0-0.5,0.2-0.9,0.5-1.2c0.3-0.3,0.6-0.5,1-0.5l10.9-1.6c0.3,0,0.6-0.3,0.8-0.5l4.9-9.9
		c0.2-0.4,0.6-0.7,1-0.9c0.1,0,0.2-0.1,0.3-0.1c0.1,0,0.2,0,0.3,0c0.1,0,0.1,0,0.2,0c0.2,0,1,0.2,1.4,1l4.9,9.9
		c0.1,0.3,0.4,0.5,0.8,0.5L49.6,24c0.5,0.1,0.9,0.3,1.2,0.7c0.3,0.4,0.4,0.8,0.3,1.3c-0.1,0.4-0.2,0.7-0.5,1l-7.9,7.7
		c-0.2,0.2-0.3,0.6-0.3,0.9l1.9,10.9c0.1,0.5,0,0.9-0.3,1.3c-0.3,0.4-0.7,0.6-1.1,0.7c-0.4,0.1-0.8,0-1.1-0.2L32,43.1
		c-0.3-0.2-0.6-0.2-0.9,0l-9.8,5.1C21,48.4,20.7,48.5,20.5,48.5z M41.3,46.9C41.3,46.9,41.3,46.9,41.3,46.9L41.3,46.9z M19.9,45.6
		C19.9,45.6,19.9,45.6,19.9,45.6L19.9,45.6z M16.3,26.6l6.1,5.9c0.9,0.9,1.4,2.2,1.2,3.5l-1.4,8.4l7.5-4c1.2-0.6,2.6-0.6,3.7,0
		l7.5,4L39.5,36c-0.2-1.3,0.2-2.6,1.2-3.5l6.1-5.9l-8.4-1.2c-1.3-0.2-2.4-1-3-2.2l-3.8-7.6l-3.8,7.6c-0.6,1.2-1.7,2-3,2.2L16.3,26.6
		z M49.2,26.9C49.2,26.9,49.2,26.9,49.2,26.9L49.2,26.9z M13.8,26.9L13.8,26.9C13.8,26.9,13.8,26.9,13.8,26.9z M14.5,24.8L14.5,24.8
		C14.5,24.8,14.5,24.8,14.5,24.8z M32.6,13.3L32.6,13.3C32.6,13.3,32.6,13.3,32.6,13.3z"/>
</g>
</svg>
