<?xml version="1.0" encoding="utf-8"?>
<!-- Generator: Adobe Illustrator 26.3.1, SVG Export Plug-In . SVG Version: 6.00 Build 0)  -->
<svg version="1.1" id="图层_1" xmlns="http://www.w3.org/2000/svg" xmlns:xlink="http://www.w3.org/1999/xlink" x="0px" y="0px"
	 viewBox="0 0 63 63" style="enable-background:new 0 0 63 63;" xml:space="preserve">
<style type="text/css">
	.st0{fill-rule:evenodd;clip-rule:evenodd;}
</style>
<path id="形状结合" class="st0" d="M38.5,12c1.9,0,3.4,1.5,3.5,3.4v0.2V18h7.5c0.8,0,1.5,0.7,1.5,1.5S50.3,21,49.5,21h-36
	c-0.8,0-1.5-0.7-1.5-1.5s0.7-1.5,1.5-1.5H21v-2.4c0-1.9,1.5-3.5,3.3-3.6h0.2H38.5z M38.2,15H24.8c-0.4,0-0.8,0.4-0.8,0.8V18h15v-2.2
	C39,15.4,38.6,15,38.2,15z M45.5,24c0.8,0,1.4,0.6,1.5,1.4v0.1V47c0,2.2-2.1,4-4.6,4H20.6c-2.5,0-4.6-1.8-4.6-4V25.5
	c0-0.8,0.7-1.5,1.5-1.5s1.4,0.6,1.5,1.4v0.1V47c0,0.5,0.5,0.9,1.1,1h0.1h22.6c0.6,0,1.1-0.4,1.2-0.9V47V25.5
	C44,24.7,44.7,24,45.5,24z M26.5,24c0.8,0,1.4,0.6,1.5,1.4v0.1v17.8c0,0.9-0.7,1.6-1.5,1.6s-1.4-0.6-1.5-1.4v-0.1V25.6
	C25,24.7,25.7,24,26.5,24z M36.5,24c0.8,0,1.5,0.7,1.5,1.6v17.8c0,0.9-0.7,1.6-1.5,1.6S35,44.3,35,43.4V25.6
	C35,24.7,35.7,24,36.5,24z"/>
</svg>
