<?xml version="1.0" encoding="utf-8"?>
<!-- Generator: Adobe Illustrator 26.3.1, SVG Export Plug-In . SVG Version: 6.00 Build 0)  -->
<svg version="1.1" id="图层_1" xmlns="http://www.w3.org/2000/svg" xmlns:xlink="http://www.w3.org/1999/xlink" x="0px" y="0px"
	 viewBox="0 0 63 63" style="enable-background:new 0 0 63 63;" xml:space="preserve">
<g>
	<path d="M27.5,45H13l-0.1,0c-0.5-0.1-0.9-0.5-0.9-1V21.8l16.3,10.8c1,0.7,2.2,1,3.3,1c1.1,0,2.1-0.3,3-0.9L51,22.5v4
		c0,0.8,0.7,1.5,1.5,1.5c0.8,0,1.5-0.7,1.5-1.5V21h0v-1.9c0-2.3-1.7-4.1-3.9-4.1H12.9C10.7,15,9,16.8,9,19.1v24.8
		c0,2.3,1.7,4.1,3.9,4.1h14.6c0.8,0,1.5-0.7,1.5-1.5S28.3,45,27.5,45z M13,18H50l0.1,0c0.5,0.1,0.8,0.5,0.8,0.9L33.1,30.2
		c-0.9,0.6-2.1,0.5-3.1-0.1L12.2,18.4C12.4,18.2,12.7,18,13,18z"/>
	<path d="M54.2,31.7c-0.6-0.6-1.5-0.6-2.1,0c-0.8,0.8-1.8,1.8-3.1,3c-2.5,2.4-5.8,5.6-10.3,10.1l-5.4-5.3c-0.6-0.6-1.5-0.6-2.1,0
		c-0.6,0.6-0.6,1.5,0,2.1l5.8,5.7c0.4,0.4,1,0.7,1.7,0.7c0,0,0,0,0,0c0.6,0,1.2-0.3,1.7-0.7c4.7-4.7,8.2-8,10.7-10.5
		c1.4-1.3,2.4-2.3,3.2-3.1C54.8,33.2,54.8,32.3,54.2,31.7z"/>
</g>
</svg>
