<?xml version="1.0" encoding="utf-8"?>
<!-- Generator: Adobe Illustrator 26.3.1, SVG Export Plug-In . SVG Version: 6.00 Build 0)  -->
<svg version="1.1" id="图层_1" xmlns="http://www.w3.org/2000/svg" xmlns:xlink="http://www.w3.org/1999/xlink" x="0px" y="0px"
	 viewBox="0 0 63 63" style="enable-background:new 0 0 63 63;" xml:space="preserve">
<style type="text/css">
	.st0{fill-rule:evenodd;clip-rule:evenodd;}
</style>
<path class="st0" d="M54.8,29.7l-9-12.5c-0.6-0.8-1.5-1.2-2.4-1.2H20.5c-1,0-1.9,0.5-2.4,1.3L9.2,29.7C9.1,29.9,9,30.1,9,30.3V44
	c0,1.7,1.3,3,3,3h40c1.7,0,3-1.3,3-3V30.3C55,30.1,54.9,29.9,54.8,29.7z M52,43c0,0.6-0.4,1-1,1H13c-0.6,0-1-0.4-1-1v-9
	c0-0.6,0.4-1,1-1h8.9l2.8,4.6l0.1,0.1c0.6,0.8,1.5,1.3,2.5,1.3h10.4l0.2,0c0.9,0,1.8-0.5,2.3-1.3l2.9-4.7h0l1.9-3h-2.7
	c-0.5,0-0.9,0.3-1.2,0.7L39.5,33h0l-1.7,2.7c-0.1,0.2-0.3,0.3-0.5,0.3h-9.8c-0.2,0-0.4-0.1-0.5-0.3l-0.8-1.3l-2.3-3.8
	c-0.3-0.4-0.7-0.7-1.2-0.7H12.7l5-7l2.9-4h22.9l5.8,8l0,0l2.2,3h-6.4l-1.9,3H51c0.6,0,1,0.4,1,1V43z"/>
</svg>
