<?xml version="1.0" encoding="utf-8"?>
<!-- Generator: Adobe Illustrator 26.3.1, SVG Export Plug-In . SVG Version: 6.00 Build 0)  -->
<svg version="1.1" id="图层_1" xmlns="http://www.w3.org/2000/svg" xmlns:xlink="http://www.w3.org/1999/xlink" x="0px" y="0px"
	 viewBox="0 0 63 63" style="enable-background:new 0 0 63 63;" xml:space="preserve">
<style type="text/css">
	.st0{fill-rule:evenodd;clip-rule:evenodd;}
</style>
<g>
	<path class="st0" d="M32.3,45L13,45l-0.1,0c-0.5-0.1-0.9-0.5-0.9-1V21.8l16.3,10.8c0.7,0.5,1.5,0.8,2.3,0.9c0.3-1,0.7-2,1.3-2.9
		c-0.6,0.1-1.3-0.1-1.9-0.5L12.2,18.4c0.2-0.2,0.5-0.4,0.8-0.4h37l0.1,0c0.5,0.1,0.8,0.4,0.9,0.9l0,0.1l-8,5.1c0.2,0,0.4,0,0.6,0
		c1.4,0,2.8,0.2,4.1,0.6l3.4-2.1l0,3.8c1.1,0.8,2.1,1.7,3,2.7l0-10c0-2.2-1.8-4-4-4H13c-2.2,0-4,1.8-4,4v25c0,2.2,1.8,4,4,4l22,0
		C34,47.1,33,46.1,32.3,45z"/>
	<path class="st0" d="M43.5,27C37.7,27,33,31.7,33,37.5C33,43.3,37.7,48,43.5,48S54,43.3,54,37.5C54,31.7,49.3,27,43.5,27z M43.5,45
		c-4.1,0-7.5-3.4-7.5-7.5s3.4-7.5,7.5-7.5s7.5,3.4,7.5,7.5S47.6,45,43.5,45z"/>
	<path class="st0" d="M46.5,36h-6c-0.8,0-1.5,0.7-1.5,1.5s0.7,1.5,1.5,1.5h6c0.8,0,1.5-0.7,1.5-1.5S47.3,36,46.5,36z"/>
</g>
</svg>
