<?xml version="1.0" encoding="utf-8"?>
<!-- Generator: Adobe Illustrator 26.3.1, SVG Export Plug-In . SVG Version: 6.00 Build 0)  -->
<svg version="1.1" id="图层_1" xmlns="http://www.w3.org/2000/svg" xmlns:xlink="http://www.w3.org/1999/xlink" x="0px" y="0px"
	 viewBox="0 0 63 63" style="enable-background:new 0 0 63 63;" xml:space="preserve">
<g>
	<path d="M23.5,48H23h-2h-5.5l-0.1,0c-0.2,0-0.4-0.3-0.4-0.5V15.5l0-0.1c0-0.3,0.2-0.4,0.5-0.4h29.1l0.1,0c0.2,0,0.4,0.3,0.4,0.5V23
		v2v0.5c0,0.8,0.7,1.5,1.5,1.5s1.5-0.7,1.5-1.5V25v-2v-7.5c0-2-1.6-3.5-3.5-3.5H15.5c-1.9,0-3.5,1.6-3.5,3.5v31.9
		c0,2,1.6,3.5,3.5,3.5H21h2h0.5c0.8,0,1.5-0.7,1.5-1.5S24.3,48,23.5,48z"/>
	<path d="M46.5,40c-0.8,0-1.5,0.7-1.5,1.5v6l0,0.1c0,0.3-0.2,0.4-0.5,0.4h-6c-0.8,0-1.5,0.7-1.5,1.5s0.7,1.5,1.5,1.5h6
		c1.9,0,3.5-1.6,3.5-3.5v-6C48,40.7,47.3,40,46.5,40z"/>
	<path d="M40.5,18h-21c-0.8,0-1.5,0.7-1.5,1.5s0.7,1.5,1.5,1.5h21c0.8,0,1.5-0.7,1.5-1.5S41.3,18,40.5,18z"/>
	<path d="M42,25.5c0-0.8-0.7-1.5-1.5-1.5h-21c-0.8,0-1.5,0.7-1.5,1.5s0.7,1.5,1.5,1.5h21C41.3,27,42,26.3,42,25.5z"/>
	<path d="M39.7,31.5c0-0.8-0.7-1.5-1.5-1.5H19.5c-0.8,0-1.5,0.7-1.5,1.5s0.7,1.5,1.5,1.5h18.7C39,33,39.7,32.3,39.7,31.5z"/>
	<path d="M19.5,36c-0.8,0-1.5,0.7-1.5,1.5s0.7,1.5,1.5,1.5h13c0.8,0,1.5-0.7,1.5-1.5S33.3,36,32.5,36H19.5z"/>
	<path d="M30,43.5c0-0.8-0.7-1.5-1.5-1.5h-9c-0.8,0-1.5,0.7-1.5,1.5s0.7,1.5,1.5,1.5h9C29.3,45,30,44.3,30,43.5z"/>
	<path d="M51.4,28.5c-0.6-0.6-1.5-0.6-2.1,0l-1.8,1.8l2.1,2.1l1.8-1.8C52,30,52,29.1,51.4,28.5z"/>
	<path d="M45.4,32.4L31.7,46c-0.1,0.1-0.2,0.2-0.3,0.4l-1.9,3.3c-0.1,0.1-0.1,0.3,0,0.4c0.1,0.2,0.4,0.3,0.6,0.2l3.3-1.9
		c0.1-0.1,0.3-0.2,0.4-0.3l13.7-13.7L45.4,32.4z"/>
</g>
</svg>
