<?xml version="1.0" encoding="utf-8"?>
<!-- Generator: Adobe Illustrator 26.2.1, SVG Export Plug-In . SVG Version: 6.00 Build 0)  -->
<svg version="1.1" id="图层_1" xmlns="http://www.w3.org/2000/svg" xmlns:xlink="http://www.w3.org/1999/xlink" x="0px" y="0px"
	 viewBox="0 0 63 63" style="enable-background:new 0 0 63 63;" xml:space="preserve">
<path id="形状结合" d="M19.3,12c2,0,3.7,1.6,3.7,3.7v3.7c0,2-1.6,3.7-3.7,3.7h-3.7c-2,0-3.7-1.6-3.7-3.7v-3.7
	c0-2,1.6-3.7,3.7-3.7H19.3z M19.1,15h-3.2c-0.5,0-0.9,0.4-0.9,0.9v3.2c0,0.5,0.4,0.9,0.9,0.9h3.2c0.5,0,0.9-0.4,0.9-0.9v-3.2
	C20,15.4,19.6,15,19.1,15z M33.3,12c2,0,3.7,1.6,3.7,3.7v3.7c0,2-1.6,3.7-3.7,3.7h-3.7c-2,0-3.7-1.6-3.7-3.7v-3.7
	c0-2,1.6-3.7,3.7-3.7H33.3z M33.1,15h-3.2c-0.5,0-0.9,0.4-0.9,0.9v3.2c0,0.5,0.4,0.9,0.9,0.9h3.2c0.5,0,0.9-0.4,0.9-0.9v-3.2
	C34,15.4,33.6,15,33.1,15z M47.3,12c2,0,3.7,1.6,3.7,3.7v3.7c0,2-1.6,3.7-3.7,3.7h-3.7c-2,0-3.7-1.6-3.7-3.7v-3.7
	c0-2,1.6-3.7,3.7-3.7H47.3z M47.1,15h-3.2c-0.5,0-0.9,0.4-0.9,0.9v3.2c0,0.5,0.4,0.9,0.9,0.9h3.2c0.5,0,0.9-0.4,0.9-0.9v-3.2
	C48,15.4,47.6,15,47.1,15z M19.3,26c2,0,3.7,1.6,3.7,3.7v3.7c0,2-1.6,3.7-3.7,3.7h-3.7c-2,0-3.7-1.6-3.7-3.7v-3.7
	c0-2,1.6-3.7,3.7-3.7H19.3z M19.1,29h-3.2c-0.5,0-0.9,0.4-0.9,0.9v3.2c0,0.5,0.4,0.9,0.9,0.9h3.2c0.5,0,0.9-0.4,0.9-0.9v-3.2
	C20,29.4,19.6,29,19.1,29z M33.3,26c2,0,3.7,1.6,3.7,3.7v3.7c0,2-1.6,3.7-3.7,3.7h-3.7c-2,0-3.7-1.6-3.7-3.7v-3.7
	c0-2,1.6-3.7,3.7-3.7H33.3z M33.1,29h-3.2c-0.5,0-0.9,0.4-0.9,0.9v3.2c0,0.5,0.4,0.9,0.9,0.9h3.2c0.5,0,0.9-0.4,0.9-0.9v-3.2
	C34,29.4,33.6,29,33.1,29z M47.3,26c2,0,3.7,1.6,3.7,3.7v3.7c0,2-1.6,3.7-3.7,3.7h-3.7c-2,0-3.7-1.6-3.7-3.7v-3.7
	c0-2,1.6-3.7,3.7-3.7H47.3z M47.1,29h-3.2c-0.5,0-0.9,0.4-0.9,0.9v3.2c0,0.5,0.4,0.9,0.9,0.9h3.2c0.5,0,0.9-0.4,0.9-0.9v-3.2
	C48,29.4,47.6,29,47.1,29z M19.3,40c2,0,3.7,1.6,3.7,3.7v3.7c0,2-1.6,3.7-3.7,3.7h-3.7c-2,0-3.7-1.6-3.7-3.7v-3.7
	c0-2,1.6-3.7,3.7-3.7H19.3z M19.1,43h-3.2c-0.5,0-0.9,0.4-0.9,0.9v3.2c0,0.5,0.4,0.9,0.9,0.9h3.2c0.5,0,0.9-0.4,0.9-0.9v-3.2
	C20,43.4,19.6,43,19.1,43z M33.3,40c2,0,3.7,1.6,3.7,3.7v3.7c0,2-1.6,3.7-3.7,3.7h-3.7c-2,0-3.7-1.6-3.7-3.7v-3.7
	c0-2,1.6-3.7,3.7-3.7H33.3z M33.1,43h-3.2c-0.5,0-0.9,0.4-0.9,0.9v3.2c0,0.5,0.4,0.9,0.9,0.9h3.2c0.5,0,0.9-0.4,0.9-0.9v-3.2
	C34,43.4,33.6,43,33.1,43z M47.3,40c2,0,3.7,1.6,3.7,3.7v3.7c0,2-1.6,3.7-3.7,3.7h-3.7c-2,0-3.7-1.6-3.7-3.7v-3.7
	c0-2,1.6-3.7,3.7-3.7H47.3z M47.1,43h-3.2c-0.5,0-0.9,0.4-0.9,0.9v3.2c0,0.5,0.4,0.9,0.9,0.9h3.2c0.5,0,0.9-0.4,0.9-0.9v-3.2
	C48,43.4,47.6,43,47.1,43z"/>
</svg>
