<?xml version="1.0" encoding="utf-8"?>
<!-- Generator: Adobe Illustrator 26.2.1, SVG Export Plug-In . SVG Version: 6.00 Build 0)  -->
<svg version="1.1" id="图层_1" xmlns="http://www.w3.org/2000/svg" xmlns:xlink="http://www.w3.org/1999/xlink" x="0px" y="0px"
	 viewBox="0 0 63 63" style="enable-background:new 0 0 63 63;" xml:space="preserve">
<style type="text/css">
	.st0{fill-rule:evenodd;clip-rule:evenodd;}
</style>
<g id="侧边收起2-_x28_1_x29_" transform="translate(12.000000, 12.000000)">
	<path id="形状结合" d="M37,11.5c-0.3,0-0.6,0.1-0.8,0.2c-0.2,0.1-0.3,0.2-0.5,0.3l-0.1,0.1L29.5,18c0,0,0,0,0,0
		c-0.6,0.6-0.7,1.7-0.1,2.3l0.1,0.1l6.2,6.3l0,0c0.3,0.3,0.8,0.6,1.3,0.6l0,0c0.4,0,0.9-0.2,1.2-0.5c0.3-0.3,0.5-0.8,0.5-1.2
		c0,0,0,0,0,0V13.3C38.8,12.3,38,11.5,37,11.5z"/>
	<path id="路径" d="M36.9,0.2c1,0,1.9,0.6,1.9,1.3s-0.8,1.3-1.9,1.3H2.1c-1,0-1.9-0.6-1.9-1.3s0.8-1.3,1.9-1.3H36.9z"/>
	<path id="矩形" class="st0" d="M1.5,0h36C38.3,0,39,0.7,39,1.5l0,0C39,2.3,38.3,3,37.5,3h-36C0.7,3,0,2.3,0,1.5l0,0
		C0,0.7,0.7,0,1.5,0z"/>
	<path id="矩形备份" class="st0" d="M1.5,13h22c0.8,0,1.5,0.7,1.5,1.5l0,0c0,0.8-0.7,1.5-1.5,1.5h-22C0.7,16,0,15.3,0,14.5l0,0
		C0,13.7,0.7,13,1.5,13z"/>
	<path id="矩形备份-2" class="st0" d="M1.5,24h22c0.8,0,1.5,0.7,1.5,1.5l0,0c0,0.8-0.7,1.5-1.5,1.5h-22C0.7,27,0,26.3,0,25.5
		l0,0C0,24.7,0.7,24,1.5,24z"/>
	<path id="矩形备份-3" class="st0" d="M1.5,36h36c0.8,0,1.5,0.7,1.5,1.5l0,0c0,0.8-0.7,1.5-1.5,1.5h-36C0.7,39,0,38.3,0,37.5
		l0,0C0,36.7,0.7,36,1.5,36z"/>
</g>
</svg>
