<?xml version="1.0" encoding="utf-8"?>
<!-- Generator: Adobe Illustrator 26.3.1, SVG Export Plug-In . SVG Version: 6.00 Build 0)  -->
<svg version="1.1" id="图层_1" xmlns="http://www.w3.org/2000/svg" xmlns:xlink="http://www.w3.org/1999/xlink" x="0px" y="0px"
	 viewBox="0 0 63 63" style="enable-background:new 0 0 63 63;" xml:space="preserve">
<path id="形状结合" d="M35.3,33.1l5.3,5.3c0.6,0.6,0.6,1.5,0,2.1c-0.6,0.6-1.5,0.6-2.1,0L34,36v16.5c0,0.8-0.7,1.5-1.5,1.5
	S31,53.3,31,52.5V36l-4.5,4.5c-0.6,0.6-1.5,0.6-2.1,0c-0.6-0.6-0.6-1.5,0-2.1l5.3-5.3C31.2,31.6,33.8,31.6,35.3,33.1z M38.5,48
	c-0.8,0-1.5-0.7-1.5-1.5s0.7-1.5,1.5-1.5l0,0h5.6l0.2,0c4.2-0.2,7.6-3.6,7.7-7.9l0-0.3c0-4.1-3-7.5-6.9-8l-0.3,0l-2.3-0.3l-0.3-2.3
	c-0.5-3.9-4.5-7.1-9.5-7.2l-0.3,0c-5.3,0-9.5,3.4-9.8,7.6l0,0.2l-0.1,2.8l-3.1,0c-4.1,0.1-7.4,3.5-7.4,7.7c0,4.2,3.3,7.5,7.4,7.7
	l0.2,0h6.9c0.8,0,1.5,0.7,1.5,1.5S27.3,48,26.5,48h-6.9C13.8,48,9,43.2,9,37.3c0-5.8,4.6-10.5,10.3-10.7l0.3,0
	C19.9,20.7,25.5,16,32.4,16c6.6,0,12,4.3,12.7,9.8c5.5,0.6,9.8,5.3,9.8,11c0,6-4.7,10.9-10.6,11.1l0,0H38.5z"/>
</svg>
