<?xml version="1.0" encoding="utf-8"?>
<!-- Generator: Adobe Illustrator 26.3.1, SVG Export Plug-In . SVG Version: 6.00 Build 0)  -->
<svg version="1.1" id="图层_1" xmlns="http://www.w3.org/2000/svg" xmlns:xlink="http://www.w3.org/1999/xlink" x="0px" y="0px"
	 viewBox="0 0 63 63" style="enable-background:new 0 0 63 63;" xml:space="preserve">
<style type="text/css">
	.st0{fill-rule:evenodd;clip-rule:evenodd;}
</style>
<path id="星形" class="st0" d="M31,45.5l-9.6,5.3c-0.8,0.5-1.9,0.2-2.4-0.7c-0.2-0.3-0.3-0.7-0.2-1.1l1.9-11.3
	c0.1-0.3,0-0.6-0.3-0.9l-7.9-8.1c-0.7-0.7-0.7-1.8,0-2.5c0.3-0.3,0.6-0.4,1-0.5l10.9-1.7c0.3,0,0.6-0.3,0.8-0.6l4.8-10.2
	c0.4-0.9,1.5-1.2,2.3-0.8c0.4,0.2,0.7,0.5,0.8,0.8l4.8,10.2c0.1,0.3,0.4,0.5,0.8,0.6l10.9,1.7c1,0.1,1.6,1,1.5,2
	c-0.1,0.4-0.2,0.7-0.5,1l-7.9,8.1c-0.2,0.2-0.3,0.5-0.3,0.9L44.1,49c0.2,1-0.5,1.9-1.4,2c-0.4,0.1-0.8,0-1.1-0.2L32,45.5
	C31.7,45.3,31.3,45.3,31,45.5z"/>
</svg>
