<?xml version="1.0" encoding="utf-8"?>
<!-- Generator: Adobe Illustrator 26.2.1, SVG Export Plug-In . SVG Version: 6.00 Build 0)  -->
<svg version="1.1" id="图层_1" xmlns="http://www.w3.org/2000/svg" xmlns:xlink="http://www.w3.org/1999/xlink" x="0px" y="0px"
	 viewBox="0 0 63 63" style="enable-background:new 0 0 63 63;" xml:space="preserve">
<path id="形状结合" d="M25.7,14c2.2,0,4.2,1,5.5,2.6c1.1-1.6,3-2.6,5.1-2.6h12.8c1,0,1.8,0.8,1.8,1.7v27c0,1-0.8,1.8-1.8,1.8
	H36.4c-1.9,0-3.4,1.5-3.5,3.3l0,0.2c0,0.6-0.5,1-1,1h-0.7c-0.6,0-1-0.4-1-1c-0.4-2-2.2-3.5-4.3-3.5h-12c-1,0-1.8-0.8-1.8-1.8v-27
	c0-0.9,0.7-1.7,1.6-1.7l0.1,0H25.7z M25.7,17H15v24.5l10.7,0c1.6,0,3,0.5,4.3,1.3l0-23l-1-1.3c-0.7-0.9-1.8-1.4-3-1.5L25.7,17z
	 M48,17H36.4c-1,0-1.9,0.4-2.5,1.2l-0.1,0.2l-0.7,1l0,23.1c0.9-0.6,2-0.9,3.1-0.9l0.2,0l11.6,0V17z"/>
</svg>
