<?xml version="1.0" encoding="utf-8"?>
<!-- Generator: Adobe Illustrator 26.3.1, SVG Export Plug-In . SVG Version: 6.00 Build 0)  -->
<svg version="1.1" id="图层_1" xmlns="http://www.w3.org/2000/svg" xmlns:xlink="http://www.w3.org/1999/xlink" x="0px" y="0px"
	 viewBox="0 0 72 72" style="enable-background:new 0 0 72 72;" xml:space="preserve">
<style type="text/css">
	.st0{fill-rule:evenodd;clip-rule:evenodd;fill:#989898;}
	.st1{fill-rule:evenodd;clip-rule:evenodd;fill:#E8E8E8;}
	.st2{fill:#989898;}
</style>
<circle id="path-1_00000180330574695579414540000003809095547729197466_" class="st0" cx="36" cy="36" r="36"/>
<circle id="椭圆形" class="st1" cx="36" cy="31.4" r="13"/>
<path id="路径" class="st1" d="M36,47.3c10.7,0,20,6.1,24.7,14.9C54.2,68.3,45.6,72,36,72c-9.5,0-18.2-3.7-24.7-9.8
	C16,53.3,25.3,47.3,36,47.3z"/>
<path id="Mask_00000088114109586704734710000000008398334064307639_" class="st2" d="M36,0c19.9,0,36,16.1,36,36S55.9,72,36,72
	S0,55.9,0,36S16.1,0,36,0z M36,0.8C16.6,0.8,0.8,16.6,0.8,36S16.6,71.2,36,71.2S71.2,55.4,71.2,36S55.4,0.8,36,0.8z"/>
</svg>
