<?xml version="1.0" encoding="utf-8"?>
<!-- Generator: Adobe Illustrator 26.2.1, SVG Export Plug-In . SVG Version: 6.00 Build 0)  -->
<svg version="1.1" id="图层_1" xmlns="http://www.w3.org/2000/svg" xmlns:xlink="http://www.w3.org/1999/xlink" x="0px" y="0px"
	 viewBox="0 0 63 63" style="enable-background:new 0 0 63 63;" xml:space="preserve">
<g>
	<path d="M24.8,42L24.8,42L24.8,42C24.8,42,24.8,42,24.8,42z"/>
	<path d="M37.7,27.8L24.4,38.5L21,32.8c-0.4-0.7-1.3-1-2-0.5c-0.7,0.4-1,1.3-0.5,2l4.1,7.2c0,0.1,0.1,0.2,0.2,0.3
		c0.5,0.6,1.5,0.7,2.1,0.2l14.7-11.9c0.6-0.5,0.7-1.5,0.2-2.1C39.2,27.3,38.3,27.2,37.7,27.8z"/>
	<path d="M39.5,18h-22c-3,0-5.5,2.5-5.5,5.5v22c0,3,2.5,5.5,5.5,5.5h22c3,0,5.5-2.5,5.5-5.5v-22C45,20.5,42.5,18,39.5,18z M42,45.5
		c0,1.4-1.1,2.5-2.5,2.5h-22c-1.4,0-2.5-1.1-2.5-2.5v-22c0-1.4,1.1-2.5,2.5-2.5h22c1.4,0,2.5,1.1,2.5,2.5V45.5z"/>
	<path d="M47,12H21.5c-0.8,0-1.5,0.7-1.5,1.5s0.7,1.5,1.5,1.5H47l0.1,0c0.5,0.1,0.9,0.5,0.9,1v25.5c0,0.8,0.7,1.5,1.5,1.5
		s1.5-0.7,1.5-1.5V16C51,13.8,49.2,12,47,12z"/>
</g>
</svg>
