<?xml version="1.0" encoding="utf-8"?>
<!-- Generator: Adobe Illustrator 26.2.1, SVG Export Plug-In . SVG Version: 6.00 Build 0)  -->
<svg version="1.1" id="图层_1" xmlns="http://www.w3.org/2000/svg" xmlns:xlink="http://www.w3.org/1999/xlink" x="0px" y="0px"
	 viewBox="0 0 63 63" style="enable-background:new 0 0 63 63;" xml:space="preserve">
<g>
	<path d="M41,18H16c-2.2,0-4,1.8-4,4v25c0,2.2,1.8,4,4,4h25c2.2,0,4-1.8,4-4V22C45,19.8,43.2,18,41,18z M39.5,30.1L24.9,42
		c-0.6,0.5-1.6,0.4-2.1-0.2c-0.1-0.1-0.1-0.2-0.2-0.3l-4.1-7.2c-0.4-0.7-0.2-1.6,0.5-2c0.7-0.4,1.6-0.2,2,0.5l3.3,5.7l13.3-10.8
		c0.6-0.5,1.6-0.4,2.1,0.2C40.3,28.6,40.2,29.6,39.5,30.1z"/>
	<path d="M47,12H21.5c-0.8,0-1.5,0.7-1.5,1.5s0.7,1.5,1.5,1.5H47l0.1,0c0.5,0.1,0.9,0.5,0.9,1v25.5c0,0.8,0.7,1.5,1.5,1.5
		s1.5-0.7,1.5-1.5V16C51,13.8,49.2,12,47,12z"/>
</g>
</svg>
