<?xml version="1.0" encoding="utf-8"?>
<!-- Generator: Adobe Illustrator 26.3.1, SVG Export Plug-In . SVG Version: 6.00 Build 0)  -->
<svg version="1.1" id="图层_1" xmlns="http://www.w3.org/2000/svg" xmlns:xlink="http://www.w3.org/1999/xlink" x="0px" y="0px"
	 viewBox="0 0 63 63" style="enable-background:new 0 0 63 63;" xml:space="preserve">
<path id="形状结合" d="M43.3,12c2,0,3.6,1.6,3.6,3.5l0,8.5h2.3c1,0,1.8,0.8,1.8,1.8v7.5c0,1-0.8,1.8-1.8,1.8h-8
	c-3.1,0-5.6-2.5-5.6-5.5s2.5-5.5,5.6-5.5h2.6l0-8.5c0-0.3-0.2-0.5-0.4-0.5l-0.1,0H15.6c-0.2,0-0.4,0.2-0.5,0.4l0,0.1v31.9
	c0,0.3,0.2,0.5,0.4,0.5l0.1,0h22.6c0.8,0,1.5,0.7,1.5,1.5S39,51,38.2,51H15.6c-2,0-3.6-1.6-3.6-3.5V15.5c0-2,1.6-3.5,3.6-3.5H43.3z
	 M47.9,27h-6.7c-1.4,0-2.5,1-2.6,2.3l0,0.2c0,1.3,1.1,2.4,2.4,2.5l0.2,0h6.7V27z M44,37c0.8,0,1.5,0.7,1.5,1.5v4h4
	c0.8,0,1.5,0.7,1.5,1.5s-0.7,1.5-1.5,1.5h-4v4c0,0.8-0.7,1.5-1.5,1.5s-1.5-0.7-1.5-1.5v-4h-4c-0.8,0-1.5-0.7-1.5-1.5
	s0.7-1.5,1.5-1.5h4v-4C42.5,37.7,43.2,37,44,37z"/>
</svg>
