<?xml version="1.0" encoding="utf-8"?>
<!-- Generator: Adobe Illustrator 26.3.1, SVG Export Plug-In . SVG Version: 6.00 Build 0)  -->
<svg version="1.1" id="图层_1" xmlns="http://www.w3.org/2000/svg" xmlns:xlink="http://www.w3.org/1999/xlink" x="0px" y="0px"
	 viewBox="0 0 63 63" style="enable-background:new 0 0 63 63;" xml:space="preserve">
<path d="M34.1,13.4c-8.9,0-16.6,6.6-17.9,15.5c0,0.3-0.1,0.6-0.1,0.9l-1.7-1.7c-0.6-0.6-1.5-0.6-2.1,0c-0.6,0.6-0.6,1.5,0,2.1
	l3.1,3.1c0.6,0.6,1.4,0.9,2.2,0.9s1.6-0.3,2.2-0.9l3.1-3.1c0.6-0.6,0.6-1.5,0-2.1c-0.6-0.6-1.5-0.6-2.1,0l-1.6,1.6
	c0-0.1,0-0.3,0-0.4c1.1-7.4,7.5-12.9,15-12.9c8.3,0,15.1,6.8,15.1,15.1s-6.8,15.1-15.1,15.1c-1.5,0-2.9-0.2-4.3-0.6
	c-0.8-0.2-1.6,0.2-1.9,1c-0.2,0.8,0.2,1.6,1,1.9c1.7,0.5,3.4,0.8,5.2,0.8c10,0,18.1-8.1,18.1-18.1S44.1,13.4,34.1,13.4z"/>
</svg>
