<?xml version="1.0" encoding="utf-8"?>
<!-- Generator: Adobe Illustrator 26.2.1, SVG Export Plug-In . SVG Version: 6.00 Build 0)  -->
<svg version="1.1" id="图层_1" xmlns="http://www.w3.org/2000/svg" xmlns:xlink="http://www.w3.org/1999/xlink" x="0px" y="0px"
	 viewBox="0 0 63 63" style="enable-background:new 0 0 63 63;" xml:space="preserve">
<style type="text/css">
	.st0{fill-rule:evenodd;clip-rule:evenodd;}
</style>
<g id="ic_重命名" transform="translate(12.000000, 12.000000)">
	<path id="形状结合" class="st0" d="M34.5,0C35.3,0,36,0.7,36,1.5S35.3,3,34.5,3H29v33h5.5c0.8,0,1.5,0.7,1.5,1.5
		S35.3,39,34.5,39h-14c-0.8,0-1.5-0.7-1.5-1.5s0.7-1.5,1.5-1.5H26V3h-5.5C19.7,3,19,2.3,19,1.5S19.7,0,20.5,0H34.5z M35,8
		c2.2,0,4,1.8,4,4v15c0,2.1-1.7,3.9-3.8,4L35,31h-1.5c-0.8,0-1.5-0.7-1.5-1.5c0-0.8,0.6-1.4,1.4-1.5l0.1,0H35c0.5,0,0.9-0.4,1-0.9
		l0-0.1V12c0-0.5-0.4-0.9-0.9-1L35,11h-1.5c-0.8,0-1.5-0.7-1.5-1.5c0-0.8,0.6-1.4,1.4-1.5l0.1,0H35z M22.5,8C23.3,8,24,8.7,24,9.5
		S23.3,11,22.5,11H4c-0.5,0-0.9,0.4-1,0.9L3,12v15c0,0.5,0.4,0.9,0.9,1L4,28h18.5c0.8,0,1.5,0.7,1.5,1.5S23.3,31,22.5,31H4
		c-2.2,0-4-1.8-4-4V12c0-2.2,1.8-4,4-4H22.5z M16.5,18c0.8,0,1.5,0.7,1.5,1.5S17.3,21,16.5,21h-9C6.7,21,6,20.3,6,19.5
		S6.7,18,7.5,18H16.5z"/>
</g>
</svg>
