<?xml version="1.0" encoding="utf-8"?>
<!-- Generator: Adobe Illustrator 26.3.1, SVG Export Plug-In . SVG Version: 6.00 Build 0)  -->
<svg version="1.1" id="图层_1" xmlns="http://www.w3.org/2000/svg" xmlns:xlink="http://www.w3.org/1999/xlink" x="0px" y="0px"
	 viewBox="0 0 63 63" style="enable-background:new 0 0 63 63;" xml:space="preserve">
<style type="text/css">
	.st0{fill-rule:evenodd;clip-rule:evenodd;}
</style>
<path id="形状结合备份-2" class="st0" d="M12.5,30.3c0.6-0.6,1.5-0.6,2.1,0l0,0l3.9,3.9c0.6,0.6,0.6,1.5,0,2.1
	c-0.6,0.6-1.5,0.6-2.1,0L16.1,36c0.9,3,2.6,5.7,5.2,7.9c6.3,5.3,15.7,5.1,21.8-0.4c1-0.9,1.9-2,2.6-3c0.3-0.4,0.7-0.6,1.1-0.7l0.2,0
	c1.2,0,1.9,1.3,1.3,2.3c-1.1,1.7-2.5,3.3-4.3,4.6c-7,5.5-17.1,5.5-24.1-0.1c-4.1-3.2-6.5-7.7-7.2-12.3l-1.9,1.9
	c-0.6,0.6-1.5,0.6-2.1,0s-0.6-1.5,0-2.1L12.5,30.3z M19.9,16c7-5.6,17.2-5.5,24.2,0.1c3.5,2.8,5.8,6.5,6.8,10.5l0.9-0.9
	c0.6-0.6,1.5-0.6,2.1,0c0.6,0.6,0.6,1.5,0,2.1L50,31.7c-0.6,0.6-1.5,0.6-2.1,0l-3.9-3.9c-0.6-0.6-0.6-1.5,0-2.1
	c0.6-0.6,1.5-0.6,2.1,0l1.9,1.9c-0.8-3.3-2.6-6.4-5.4-8.8c-6.3-5.4-15.8-5.2-21.9,0.4c-1,0.9-1.9,2-2.6,3.1
	c-0.3,0.4-0.7,0.6-1.1,0.7l-0.2,0c-1.2,0-1.9-1.3-1.3-2.3C16.7,18.9,18.2,17.4,19.9,16z"/>
</svg>
