<?xml version="1.0" encoding="utf-8"?>
<!-- Generator: Adobe Illustrator 26.3.1, SVG Export Plug-In . SVG Version: 6.00 Build 0)  -->
<svg version="1.1" id="图层_1" xmlns="http://www.w3.org/2000/svg" xmlns:xlink="http://www.w3.org/1999/xlink" x="0px" y="0px"
	 viewBox="0 0 63 63" style="enable-background:new 0 0 63 63;" xml:space="preserve">
<g id="路径">
	<path d="M39.7,51.4c-0.4,0-0.8-0.1-1.1-0.4L22.7,35c-0.9-0.9-1.5-2.2-1.5-3.5c0-1.3,0.5-2.6,1.5-3.5l15.9-15.9
		c0.6-0.6,1.5-0.6,2.1,0c0.6,0.6,0.6,1.5,0,2.1L24.8,30.1c-0.4,0.4-0.6,0.9-0.6,1.4s0.2,1,0.6,1.4l15.9,15.9c0.6,0.6,0.6,1.5,0,2.1
		C40.5,51.2,40.1,51.4,39.7,51.4z"/>
</g>
</svg>
