<?xml version="1.0" encoding="utf-8"?>
<!-- Generator: Adobe Illustrator 26.3.1, SVG Export Plug-In . SVG Version: 6.00 Build 0)  -->
<svg version="1.1" id="图层_1" xmlns="http://www.w3.org/2000/svg" xmlns:xlink="http://www.w3.org/1999/xlink" x="0px" y="0px"
	 viewBox="0 0 63 63" style="enable-background:new 0 0 63 63;" xml:space="preserve">
<style type="text/css">
	.st0{fill-rule:evenodd;clip-rule:evenodd;fill:#FFFFFF;}
	.st1{fill-rule:evenodd;clip-rule:evenodd;}
	.st2{fill:#FFFFFF;}
</style>
<g id="椭圆形">
	<circle class="st0" cx="31.5" cy="31.5" r="17.8"/>
	<path d="M31.5,50.8c-10.6,0-19.2-8.6-19.2-19.2s8.6-19.2,19.2-19.2s19.2,8.6,19.2,19.2S42.1,50.8,31.5,50.8z M31.5,15.2
		c-9,0-16.2,7.3-16.2,16.2c0,9,7.3,16.2,16.2,16.2c9,0,16.2-7.3,16.2-16.2C47.8,22.5,40.5,15.2,31.5,15.2z"/>
</g>
<circle id="椭圆形_00000090999844489386906000000011420064008073024142_" class="st1" cx="31.5" cy="31.5" r="11.5"/>
<g id="椭圆形备份">
	<path class="st2" d="M31.5,54C19.1,54,9,43.9,9,31.5C9,19.1,19.1,9,31.5,9C43.9,9,54,19.1,54,31.5C54,43.9,43.9,54,31.5,54z
		 M31.5,12C20.7,12,12,20.7,12,31.5C12,42.3,20.7,51,31.5,51C42.3,51,51,42.3,51,31.5C51,20.7,42.3,12,31.5,12z"/>
</g>
</svg>
