<?xml version="1.0" encoding="UTF-8"?>
<svg width="63px" height="63px" viewBox="0 0 63 63" version="1.1" xmlns="http://www.w3.org/2000/svg" xmlns:xlink="http://www.w3.org/1999/xlink">
    <title>ic_Wifioff</title>
    <g id="ic_Wifioff" stroke="none" stroke-width="1" fill="none" fill-rule="evenodd">
        <g id="编组" transform="translate(0.000000, -0.000000)" opacity="0">
            <g id="icon规范模版66备份-12">
                <rect id="Background" fill="#04B28E" x="0" y="7.93547046e-13" width="63.0000022" height="63"></rect>
                <g id="Grid" opacity="0.5" transform="translate(0.000002, 0.000000)" stroke="#FFFFFF" stroke-width="0.5">
                    <ellipse id="Inner-Circle" cx="31.4999989" cy="31.5" rx="15.7500006" ry="15.75"></ellipse>
                    <ellipse id="Circle" cx="31.4999989" cy="31.5" rx="22.7500008" ry="22.75"></ellipse>
                    <rect id="Horizontal-Rectangle" x="8.74999809" y="15.75" width="45.5000016" height="31.5" rx="3.5"></rect>
                    <path d="M12.2499978,15.75 L50.7499978,15.75 C52.6829944,15.75 54.2499978,17.3170034 54.2499978,19.25 L54.2499978,43.75 C54.2499978,45.6829966 52.6829944,47.25 50.7499978,47.25 L12.2499978,47.25 C10.3170012,47.25 8.74999778,45.6829966 8.74999778,43.75 L8.74999778,19.25 C8.74999778,17.3170034 10.3170012,15.75 12.2499978,15.75 Z" id="Vertical-Rectangle" transform="translate(31.499998, 31.500000) rotate(-270.000000) translate(-31.499998, -31.500000) "></path>
                    <rect id="Square" x="12.2499982" y="12.25" width="38.5000014" height="38.5" rx="3.5"></rect>
                    <line x1="63.0000044" y1="63" x2="2.21844735e-06" y2="7.90367771e-13" id="Path-2-Copy" transform="translate(31.500001, 31.500000) scale(-1, 1) translate(-31.500001, -31.500000) "></line>
                    <line x1="63.0000044" y1="63" x2="2.21844735e-06" y2="7.90367771e-13" id="Path-2-Copy"></line>
                </g>
            </g>
        </g>
        <g id="编组" transform="translate(8.124925, 12.898347)" fill="#000000">
            <circle id="椭圆形" cx="23.5230031" cy="31.4941527" r="2.625"></circle>
            <path d="M23.5230031,19.4941527 C23.7449736,19.4941527 23.9663513,19.4981585 24.1870527,19.5061299 L27.7829155,23.1018811 C26.4173742,22.7021309 24.9863001,22.4941527 23.5230031,22.4941527 C20.2355024,22.4941527 17.1106898,23.5439172 14.5263757,25.4594528 C13.8608385,25.9527598 12.9214097,25.8131396 12.4281027,25.1476024 C11.9347958,24.4820653 12.0744159,23.5426365 12.7399531,23.0493295 C15.8367928,20.7539016 19.5866617,19.4941527 23.5230031,19.4941527 Z M34.2892021,23.0368543 C34.9553076,23.5293936 35.0960108,24.4686608 34.6034715,25.1347663 C34.5246008,25.2414302 34.4342752,25.3346219 34.3354506,25.4138985 L29.3855753,20.463513 C31.1375179,21.0618245 32.7896696,21.9280528 34.2892021,23.0368543 Z M16.7768738,12.0981535 L19.2697578,14.5901405 C15.513243,15.3212027 12.0284033,17.0141796 9.11859265,19.5123899 C8.4900403,20.0520319 7.5430317,19.9799557 7.00338974,19.3514034 C6.46374777,18.7228511 6.53582388,17.7758425 7.16437622,17.2362005 C9.96730822,14.8297506 13.2427693,13.0804523 16.7768738,12.0981535 Z M23.5230031,11.1816527 C29.598157,11.1816527 35.3426558,13.3472408 39.8622064,17.2195414 C40.4913051,17.7585463 40.5643407,18.7054814 40.0253359,19.3345801 C39.486331,19.9636789 38.5393959,20.0367145 37.9102972,19.4977097 C33.9294101,16.08693 28.8754191,14.1816527 23.5230031,14.1816527 L23.107,14.1856527 L20.3072654,11.3859418 C21.3652555,11.2506192 22.4388623,11.1816527 23.5230031,11.1816527 Z M23.0855031,2.43165274 C31.5581368,2.43165274 39.5972365,5.29463228 46.0867508,10.4654901 C46.7346532,10.98174 46.8413786,11.9254719 46.3251287,12.5733743 C45.8088788,13.2212767 44.8651468,13.3280022 44.2172444,12.8117522 C38.2542647,8.06043821 30.87277,5.43165274 23.0855031,5.43165274 C20.4156785,5.43165274 17.7933117,5.7405722 15.2591121,6.33836212 L12.8031464,3.88203074 C16.102165,2.92825362 19.5564539,2.43165274 23.0855031,2.43165274 Z M9.63549658,4.95667865 L11.9709684,7.29270793 C8.53995709,8.48075277 5.31716279,10.2185688 2.41455547,12.4510119 C1.75788799,12.9560657 0.816126831,12.8331585 0.311073059,12.176491 C-0.193980714,11.5198235 -0.0710735145,10.5780623 0.585593972,10.0730086 C3.36026159,7.93896603 6.40478686,6.21986484 9.63549658,4.95667865 Z" id="形状结合" fill-rule="nonzero"></path>
            <path d="M21.6731354,-6.40811691 C22.5015625,-6.40811691 23.1731354,-5.73654403 23.1731354,-4.90811691 L23.1731354,43.0918831 C23.1731354,43.9203102 22.5015625,44.5918831 21.6731354,44.5918831 C20.8447083,44.5918831 20.1731354,43.9203102 20.1731354,43.0918831 L20.1731354,-4.90811691 C20.1731354,-5.73654403 20.8447083,-6.40811691 21.6731354,-6.40811691 Z" id="矩形" transform="translate(21.673135, 19.091883) rotate(-45.000000) translate(-21.673135, -19.091883) "></path>
        </g>
    </g>
</svg>