<?xml version="1.0" encoding="UTF-8"?>
<svg width="63px" height="63px" viewBox="0 0 63 63" version="1.1" xmlns="http://www.w3.org/2000/svg" xmlns:xlink="http://www.w3.org/1999/xlink">
    <title>ic_Wifiabnormal</title>
    <g id="ic_Wifiabnormal" stroke="none" stroke-width="1" fill="none" fill-rule="evenodd">
        <g id="编组" transform="translate(0.000000, -0.000000)" opacity="0">
            <g id="icon规范模版66备份-12">
                <rect id="Background" fill="#04B28E" x="0" y="7.93547046e-13" width="63.0000022" height="63"></rect>
                <g id="Grid" opacity="0.5" transform="translate(0.000002, 0.000000)" stroke="#FFFFFF" stroke-width="0.5">
                    <ellipse id="Inner-Circle" cx="31.4999989" cy="31.5" rx="15.7500006" ry="15.75"></ellipse>
                    <ellipse id="Circle" cx="31.4999989" cy="31.5" rx="22.7500008" ry="22.75"></ellipse>
                    <rect id="Horizontal-Rectangle" x="8.74999809" y="15.75" width="45.5000016" height="31.5" rx="3.5"></rect>
                    <path d="M12.2499978,15.75 L50.7499978,15.75 C52.6829944,15.75 54.2499978,17.3170034 54.2499978,19.25 L54.2499978,43.75 C54.2499978,45.6829966 52.6829944,47.25 50.7499978,47.25 L12.2499978,47.25 C10.3170012,47.25 8.74999778,45.6829966 8.74999778,43.75 L8.74999778,19.25 C8.74999778,17.3170034 10.3170012,15.75 12.2499978,15.75 Z" id="Vertical-Rectangle" transform="translate(31.499998, 31.500000) rotate(-270.000000) translate(-31.499998, -31.500000) "></path>
                    <rect id="Square" x="12.2499982" y="12.25" width="38.5000014" height="38.5" rx="3.5"></rect>
                    <line x1="63.0000044" y1="63" x2="2.21844735e-06" y2="7.90367771e-13" id="Path-2-Copy" transform="translate(31.500001, 31.500000) scale(-1, 1) translate(-31.500001, -31.500000) "></line>
                    <line x1="63.0000044" y1="63" x2="2.21844735e-06" y2="7.90367771e-13" id="Path-2-Copy"></line>
                </g>
            </g>
        </g>
        <g id="编组-2" transform="translate(9.625000, 16.625000)">
            <g id="编组" stroke="#000000" stroke-linecap="round" stroke-width="3">
                <path d="M31.897306,20.3112922 C29.1361749,18.2696252 25.7205213,17.0625 22.0229284,17.0625 C18.3184309,17.0625 14.8969265,18.2741376 12.1330897,20.3227384" id="路径"></path>
                <path d="M37.386177,14.4269728 C33.2555244,10.8878756 27.8888902,8.75 22.0229284,8.75 C16.1483143,8.75 10.7745019,10.894187 6.64140971,14.4426424" id="路径"></path>
                <path d="M43.6519229,7.70696841 C37.5977018,2.88295312 29.92824,0 21.5854284,0 C13.462057,0 5.97707905,2.73328761 0,7.33035749" id="路径"></path>
            </g>
            <path d="M21.6445843,5.88256801 C22.7315863,5.87561238 23.5782305,6.24463582 24.1879095,6.81475839 C24.8608636,7.44405078 25.2560264,8.32668256 25.2400076,9.30224319 L25.2400076,9.30224319 L24.4258801,21.485029 C24.380703,22.157575 24.0787591,22.7550677 23.619594,23.184424 C23.1604289,23.6137802 22.5440427,23.875 21.8699811,23.875 C21.19591,23.875 20.579519,23.6137686 20.1203589,23.1843978 C19.6611987,22.7550271 19.3592694,22.1575169 19.3141216,21.4849595 L19.3141216,21.4849595 L18.5076399,9.47097568 C18.4453058,8.54239834 18.7652533,7.67646346 19.3329285,7.02708939 C19.9006038,6.37771533 20.7160069,5.94490208 21.6445843,5.88256801 Z" id="形状结合" stroke="#FFFFFF" stroke-width="3" fill="#000000"></path>
            <circle id="椭圆形" fill="#000000" cx="22.0229284" cy="27.5625" r="2.625"></circle>
        </g>
    </g>
</svg>