<?xml version="1.0" encoding="utf-8"?>
<!-- Generator: Adobe Illustrator 26.2.1, SVG Export Plug-In . SVG Version: 6.00 Build 0)  -->
<svg version="1.1" id="图层_1" xmlns="http://www.w3.org/2000/svg" xmlns:xlink="http://www.w3.org/1999/xlink" x="0px" y="0px"
	 viewBox="0 0 63 63" style="enable-background:new 0 0 63 63;" xml:space="preserve">
<style type="text/css">
	.st0{fill-rule:evenodd;clip-rule:evenodd;}
</style>
<path id="形状结合" class="st0" d="M38.5,12c1.9,0,3.4,1.5,3.5,3.4l0,0.2V19h7.5c0.8,0,1.5,0.7,1.5,1.5S50.3,22,49.5,22h-36
	c-0.8,0-1.5-0.7-1.5-1.5s0.7-1.5,1.5-1.5H21v-3.4c0-1.9,1.5-3.5,3.3-3.6l0.2,0H38.5z M38.2,15H24.8c-0.4,0-0.8,0.4-0.8,0.8V19h15
	v-3.2C39,15.4,38.6,15,38.2,15z"/>
<path id="路径" class="st0" d="M27.5,25c-0.8,0-1.5,0.6-1.5,1.4v15.3c0,0.7,0.7,1.3,1.5,1.3s1.5-0.6,1.5-1.3V26.4
	C29,25.6,28.3,25,27.5,25z"/>
<path id="路径_00000015317415444087935950000009805996127411885984_" class="st0" d="M34,26.4c0-0.7,0.7-1.4,1.5-1.4
	s1.5,0.6,1.5,1.4v15.3c0,0.7-0.7,1.3-1.5,1.3S34,42.4,34,41.7V26.4z"/>
<path id="形状结合_00000117648258692044321530000017134582974327110818_" class="st0" d="M43.5,25c0.8,0,1.4,0.6,1.5,1.4l0,0.1
	V47c0,2.2-1.8,4-4,4H22c-2.2,0-4-1.8-4-4V26.5c0-0.8,0.7-1.5,1.5-1.5c0.8,0,1.4,0.6,1.5,1.4l0,0.1V47c0,0.5,0.4,0.9,0.9,1l0.1,0h19
	c0.5,0,0.9-0.4,1-0.9l0-0.1V26.5C42,25.7,42.7,25,43.5,25z"/>
</svg>
