<?xml version="1.0" encoding="utf-8"?>
<!-- Generator: Adobe Illustrator 26.2.1, SVG Export Plug-In . SVG Version: 6.00 Build 0)  -->
<svg version="1.1" id="图层_1" xmlns="http://www.w3.org/2000/svg" xmlns:xlink="http://www.w3.org/1999/xlink" x="0px" y="0px"
	 viewBox="0 0 63 63" style="enable-background:new 0 0 63 63;" xml:space="preserve">
<g id="矩形">
	<path d="M45.5,51h-28c-3,0-5.5-2.5-5.5-5.5v-28c0-3,2.5-5.5,5.5-5.5h28c3,0,5.5,2.5,5.5,5.5v28C51,48.5,48.5,51,45.5,51z M17.5,15
		c-1.4,0-2.5,1.1-2.5,2.5v28c0,1.4,1.1,2.5,2.5,2.5h28c1.4,0,2.5-1.1,2.5-2.5v-28c0-1.4-1.1-2.5-2.5-2.5H17.5z"/>
</g>
</svg>
