<?xml version="1.0" encoding="utf-8"?>
<!-- Generator: Adobe Illustrator 26.3.1, SVG Export Plug-In . SVG Version: 6.00 Build 0)  -->
<svg version="1.1" id="图层_1" xmlns="http://www.w3.org/2000/svg" xmlns:xlink="http://www.w3.org/1999/xlink" x="0px" y="0px"
	 viewBox="0 0 36 36" style="enable-background:new 0 0 36 36;" xml:space="preserve">
<style type="text/css">
	.st0{fill:none;stroke:#000000;stroke-width:2;}
	.st1{stroke:#FFFFFF;stroke-width:2;}
</style>
<g id="_xFF1F_" transform="translate(14.000000, 10.000000)">
</g>
<path id="Rectangle" class="st0" d="M6.6,11h20.8c1.7,0,2.3,0.1,2.9,0.5c0.5,0.3,1,0.7,1.2,1.2c0.3,0.6,0.5,1.2,0.5,2.9l0,0v5.8
	c0,1.7-0.1,2.3-0.5,2.9c-0.3,0.5-0.7,1-1.2,1.2c-0.6,0.3-1.2,0.5-2.9,0.5l0,0H6.6c-1.7,0-2.3-0.1-2.9-0.5c-0.5-0.3-1-0.7-1.2-1.2
	C2.1,23.7,2,23.1,2,21.4l0,0v-5.8c0-1.7,0.1-2.3,0.5-2.9c0.3-0.5,0.7-1,1.2-1.2C4.3,11.1,4.9,11,6.6,11L6.6,11z"/>
<path id="Rectangle_00000098914016433559916900000003240124520861884607_" class="st0" d="M1,10"/>
<path class="st1" d="M18.2,9c1.4,0,2.6,0.5,3.5,1.4c0.9,0.9,1.3,2.1,1.3,3.6c0,1.2-0.3,2.3-0.8,3.1c-0.2,0.3-0.7,0.8-1.6,1.8
	c-0.2,0.2-0.4,0.5-0.5,0.8c-0.2,0.5-0.2,1.1-0.1,1.8l0,0l-3.2,0.7c-0.8-2-0.7-3.1-0.3-3.9c0.3-0.6,1-1.6,2.1-2.8
	c0.4-0.6,0.6-0.9,0.6-1.3c0-0.4-0.1-0.8-0.3-1.1c-0.2-0.2-0.4-0.3-0.7-0.3c-0.4,0-0.7,0.1-0.9,0.4c-0.4,0.6-0.4,1.5-0.3,2.6l0,0H13
	c-0.2-2.3,0.3-4,1.3-5.2C15.3,9.6,16.5,9,18.2,9L18.2,9z"/>
<path class="st1" d="M18,21.5c0.7,0,1.3,0.2,1.8,0.7c0.5,0.5,0.7,1,0.7,1.8c0,0.7-0.3,1.3-0.7,1.8c-0.5,0.5-1.1,0.7-1.8,0.7
	c-0.7,0-1.3-0.3-1.8-0.7c-0.5-0.5-0.7-1.1-0.7-1.8c0-0.7,0.3-1.3,0.7-1.8C16.7,21.7,17.3,21.5,18,21.5L18,21.5z"/>
</svg>
