<?xml version="1.0" encoding="utf-8"?>
<!-- Generator: Adobe Illustrator 26.3.1, SVG Export Plug-In . SVG Version: 6.00 Build 0)  -->
<svg version="1.1" id="图层_1" xmlns="http://www.w3.org/2000/svg" xmlns:xlink="http://www.w3.org/1999/xlink" x="0px" y="0px"
	 viewBox="0 0 36 36" style="enable-background:new 0 0 36 36;" xml:space="preserve">
<path id="形状结合备份" d="M18,7c6.1,0,11,4.9,11,11v8l0,0c-0.2,1.7-1.7,3-3.5,3c-1.9,0-3.5-1.6-3.5-3.5V22c0-1.1,0.9-2,2-2h3
	v-2c0-4.9-3.9-8.9-8.7-9L18,9c-4.9,0-8.9,3.9-9,8.7L9,18v2h3c1.1,0,1.9,0.8,2,1.9l0,0.1v3.5c0,1.9-1.6,3.5-3.5,3.5
	c-1.8,0-3.2-1.3-3.5-3l0,0v-8C7,11.9,11.9,7,18,7z M11.5,22h-2C9.2,22,9,22.2,9,22.5l0,0v3l0,0.1c0.1,0.8,0.7,1.4,1.5,1.4
	c0.8,0,1.5-0.7,1.5-1.5l0,0v-3C12,22.2,11.8,22,11.5,22L11.5,22z M26.5,22h-2c-0.3,0-0.5,0.2-0.5,0.5v3c0,0.8,0.7,1.5,1.5,1.5
	c0.8,0,1.4-0.6,1.5-1.4l0-0.1v-3C27,22.2,26.8,22,26.5,22z"/>
</svg>
