<?xml version="1.0" encoding="utf-8"?>
<!-- Generator: Adobe Illustrator 26.3.1, SVG Export Plug-In . SVG Version: 6.00 Build 0)  -->
<svg version="1.1" id="图层_1" xmlns="http://www.w3.org/2000/svg" xmlns:xlink="http://www.w3.org/1999/xlink" x="0px" y="0px"
	 viewBox="0 0 36 36" style="enable-background:new 0 0 36 36;" xml:space="preserve">
<g id="编组" transform="translate(4.000000, 5.000000)">
	<path id="形状结合备份" d="M13.6,12c0.6,0,1,0.4,1,1l0,8.9l1.3-1.3c0.4-0.4,1-0.4,1.3,0l0,0l0,0c0.4,0.4,0.4,1,0,1.4
		l-2.8,2.9l0,0.1l0,0l0,0c-0.2,0.2-0.4,0.3-0.7,0.3c-0.2,0-0.5-0.1-0.7-0.3c0,0,0,0,0,0l0-0.1l-2.8-2.9c-0.3-0.4-0.4-0.9-0.1-1.3
		l0.1-0.1c0,0,0,0,0,0c0.4-0.4,1-0.4,1.3,0l0,0l1,1l0-8.6C12.6,12.4,13.1,12,13.6,12z"/>
	<path id="形状结合" d="M18,19c-0.6,0-1-0.4-1-1s0.4-1,1-1h3.5c2.5,0,4.5-2,4.5-4.5c0-2.3-1.7-4.2-3.9-4.5l-0.2,0l-1.6-0.1
		l-0.2-1.5c-0.4-2.4-2.9-4.3-6-4.3c-3,0-5.5,1.8-6,4.1l0,0.2L7.8,7.9L6.2,8C3.8,8.2,2,10.1,2,12.5c0,2.4,1.9,4.4,4.3,4.5l0.2,0H9
		c0.6,0,1,0.4,1,1s-0.4,1-1,1H6.5C2.9,19,0,16.1,0,12.5C0,9.1,2.7,6.2,6.1,6c0.6-3.4,3.9-6,8-6c4.1,0,7.5,2.6,8,6
		c3.3,0.3,5.9,3.1,5.9,6.5c0,3.6-2.9,6.5-6.5,6.5H18z"/>
</g>
</svg>
