<?xml version="1.0" encoding="utf-8"?>
<!-- Generator: Adobe Illustrator 26.3.1, SVG Export Plug-In . SVG Version: 6.00 Build 0)  -->
<svg version="1.1" id="图层_1" xmlns="http://www.w3.org/2000/svg" xmlns:xlink="http://www.w3.org/1999/xlink" x="0px" y="0px"
	 viewBox="0 0 36 36" style="enable-background:new 0 0 36 36;" xml:space="preserve">
<style type="text/css">
	.st0{fill-rule:evenodd;clip-rule:evenodd;}
	.st1{fill:#FFFFFF;}
</style>
<path id="形状结合" d="M27.7,10l0.5,0c1.2,0,1.8,0.2,2.4,0.5l0.2,0.1c0.7,0.4,1.3,0.9,1.6,1.6l0.1,0.2c0.3,0.5,0.4,1.2,0.5,2.4
	l0,0.5l0,0.1l0,0l0,0.3l1,1.3c0.3,0.4,0.5,0.9,0.5,1.5s-0.2,1-0.5,1.5l-1,1.3l0,0.1l0,0.3l0,0.5c0,1.2-0.2,1.8-0.5,2.4l-0.1,0.2
	c-0.4,0.7-0.9,1.3-1.6,1.6l-0.2,0.1c-0.5,0.3-1.2,0.4-2.4,0.5l-0.5,0l-0.1,0l0,0l-21,0l-0.3,0l-0.5,0c-1.2,0-1.8-0.2-2.4-0.5
	l-0.2-0.1C2.5,26,2,25.5,1.6,24.8l-0.1-0.2C1.2,24,1.1,23.4,1,22.2l0-0.5v-6.4l0-0.5c0-1.2,0.2-1.8,0.5-2.4l0.1-0.2
	C2,11.5,2.5,11,3.2,10.6l0.2-0.1C4,10.2,4.6,10.1,5.8,10l0.5,0H27.7z M6.6,12l-0.5,0l-0.4,0c-0.8,0-1.2,0.1-1.5,0.3
	c-0.4,0.2-0.6,0.5-0.8,0.8c-0.2,0.4-0.3,0.7-0.3,1.5l0,0.4c0,0.1,0,0.2,0,0.2v6.3l0,0.4c0,0.9,0.1,1.3,0.3,1.7
	c0.2,0.4,0.5,0.6,0.8,0.8c0.4,0.2,0.7,0.3,1.5,0.3l0.4,0l0.5,0l21.1,0l0.4,0c0.9,0,1.3-0.1,1.7-0.3c0.4-0.2,0.6-0.5,0.8-0.8
	c0.2-0.4,0.3-0.7,0.3-1.5l0-0.4l0-0.5l0-6.1l0-0.4c0-0.9-0.1-1.3-0.3-1.7c-0.2-0.4-0.5-0.6-0.8-0.8c-0.4-0.2-0.7-0.3-1.5-0.3l-0.4,0
	c-0.1,0-0.2,0-0.2,0L6.6,12z"/>
<g id="路径-39">
	<path class="st0" d="M12.8,20.5c2.4,2.2,4.4,2.6,6,1.3c0.1-0.1,0.8-0.7,1.1-1.1c0.6-0.7,1.4-1,2.5-1c0.4-0.1,0.3-0.6-0.3-1.6
		c-0.8-1.3-5.9-5.8-9-2c-0.5,0.6-1.2,1.7-1.1,2.8c0.3,3.2,1.5-0.8,5.1-0.7c0.3,0-0.2,0-0.2,0C15.6,18.3,14.2,19,12.8,20.5z"/>
	<path class="st1" d="M16.9,23.3c-1.2,0-2.7-0.6-4.5-2.3l-0.6-0.5l0,0c-0.3-0.4-0.3-0.9-0.4-1.5c-0.2-1.4,0.7-2.7,1.2-3.3
		c1-1.3,2.4-1.9,3.9-1.8c2.9,0.2,5.7,2.8,6.4,3.8c0.6,1,0.8,1.6,0.6,2.1c-0.1,0.3-0.4,0.5-0.8,0.6l-0.1,0l-0.1,0
		c-0.9,0-1.5,0.2-1.9,0.7c-0.4,0.5-1.1,1.1-1.2,1.2C18.7,22.8,17.9,23.3,16.9,23.3z M13.9,20.4c2.7,2.2,4,1.1,4.4,0.8
		c0.3-0.2,0.8-0.7,1-1c0.6-0.7,1.5-1.2,2.5-1.2c-0.1-0.1-0.1-0.3-0.3-0.4c-0.5-0.7-2.9-3-5.2-3.1c-1.1-0.1-1.9,0.3-2.6,1.2
		c-0.2,0.3-1,1.3-0.9,2.2c0,0.1,0,0.3,0,0.4c0.1-0.1,0.1-0.1,0.2-0.1c0.3-0.2,0.7-0.5,1.2-0.8c0.9-0.5,1.9-0.8,2.8-0.8
		c0,0,0.1,0,0.1,0c0.9,0.1,0.8,0.7,0.8,0.8c0,0.2-0.1,0.8-1,0.7l0,0c-0.8,0-1.5,0.3-2.1,0.6C14.7,19.8,14.3,20.1,13.9,20.4z"/>
</g>
</svg>
