<?xml version="1.0" encoding="utf-8"?>
<!-- Generator: Adobe Illustrator 26.3.1, SVG Export Plug-In . SVG Version: 6.00 Build 0)  -->
<svg version="1.1" id="图层_1" xmlns="http://www.w3.org/2000/svg" xmlns:xlink="http://www.w3.org/1999/xlink" x="0px" y="0px"
	 viewBox="0 0 36 36" style="enable-background:new 0 0 36 36;" xml:space="preserve">
<style type="text/css">
	.st0{filter:url(#Adobe_OpacityMaskFilter);}
	.st1{fill-rule:evenodd;clip-rule:evenodd;fill:#FFFFFF;}
	.st2{mask:url(#mask-2_00000031186883115822109730000006364731746496988061_);fill-rule:evenodd;clip-rule:evenodd;}
</style>
<g id="路径">
</g>
<defs>
	<filter id="Adobe_OpacityMaskFilter" filterUnits="userSpaceOnUse" x="9.8" y="5" width="16.5" height="26.1">
		<feColorMatrix  type="matrix" values="1 0 0 0 0  0 1 0 0 0  0 0 1 0 0  0 0 0 1 0"/>
	</filter>
</defs>
<mask maskUnits="userSpaceOnUse" x="9.8" y="5" width="16.5" height="26.1" id="mask-2_00000031186883115822109730000006364731746496988061_">
	<g class="st0">
		<rect id="path-1_00000009566889601654599590000007872478075273337994_" class="st1" width="36" height="36"/>
	</g>
</mask>
<path id="形状结合" class="st2" d="M19.8,5.3l6.2,6.1c0.4,0.4,0.4,0.9,0.1,1.3L26,12.8c0,0,0,0,0,0l-0.1,0.1l0,0L20.8,18
	l5.1,5.1l0,0l0.1,0.1c0,0,0,0,0,0l0,0l0.1,0.1c0.3,0.4,0.3,1-0.1,1.3l0,0l-6.2,6.1c-0.3,0.3-0.6,0.3-0.9,0.3c0,0,0,0,0,0
	c0,0,0,0,0,0c-0.4-0.1-0.7-0.5-0.7-1l0-9.3l-6.7,6.7c-0.4,0.4-1,0.4-1.4,0c-0.3-0.3-0.4-0.9-0.1-1.3l0.1-0.1l8-8.1l-8-8.1L10,9.8
	C9.7,9.5,9.7,8.9,10,8.6c0.4-0.4,1-0.4,1.4,0l0,0l6.7,6.7l0-9.2c0-0.1,0-0.2,0.1-0.4c0-0.2,0.1-0.3,0.2-0.4l0,0
	C18.8,4.9,19.4,4.9,19.8,5.3z M20.1,20v7.6l3.8-3.8L20.1,20z M20.1,8.3V16l3.8-3.8L20.1,8.3z"/>
</svg>
