<?xml version="1.0" encoding="utf-8"?>
<!-- Generator: Adobe Illustrator 26.3.1, SVG Export Plug-In . SVG Version: 6.00 Build 0)  -->
<svg version="1.1" id="图层_1" xmlns="http://www.w3.org/2000/svg" xmlns:xlink="http://www.w3.org/1999/xlink" x="0px" y="0px"
	 viewBox="0 0 36 36" style="enable-background:new 0 0 36 36;" xml:space="preserve">
<style type="text/css">
	.st0{fill-rule:evenodd;clip-rule:evenodd;}
</style>
<g id="路径">
</g>
<g transform="translate(7.000000, 5.000000)">
	<g id="形状结合">
		<path class="st0" d="M10,0.3l6.2,6.1c0.4,0.4,0.4,0.9,0.1,1.3l-0.1,0.1c0,0,0,0,0,0l-0.1,0.1l0,0L11,13l5.1,5.1l0,0l0.1,0.1
			c0,0,0,0,0,0l0,0l0.1,0.1c0.3,0.4,0.3,1-0.1,1.3l0,0L10,25.8C9.8,26,9.4,26.1,9.1,26c0,0,0,0,0,0c0,0,0,0,0,0
			c-0.4-0.1-0.7-0.5-0.7-1l0-9.3l-6.7,6.7c-0.4,0.4-1,0.4-1.4,0c-0.3-0.3-0.4-0.9-0.1-1.3l0.1-0.1l8-8.1L0.3,5L0.2,4.9
			C-0.1,4.5-0.1,4,0.3,3.6c0.4-0.4,1-0.4,1.4,0l0,0l6.7,6.7l0-9.2c0-0.1,0-0.2,0.1-0.4c0-0.2,0.1-0.3,0.2-0.4l0,0
			C9-0.1,9.7-0.1,10,0.3z M10.3,15.1v7.6l3.8-3.8L10.3,15.1z M10.3,3.4V11l3.8-3.8L10.3,3.4z"/>
	</g>
	<g id="路径_00000158026156568936052850000004068050640581122487_">
		<path d="M16.7,16.2c-0.1,0-0.2,0-0.3,0c-0.5-0.2-0.8-0.7-0.7-1.2c0.2-0.6,0.3-1.3,0.3-1.9c0-0.6-0.1-1.2-0.2-1.7
			c-0.1-0.5,0.2-1.1,0.7-1.2c0.5-0.1,1.1,0.2,1.2,0.7c0.2,0.7,0.3,1.5,0.3,2.2c0,0.9-0.1,1.7-0.4,2.5C17.5,15.9,17.1,16.2,16.7,16.2
			z"/>
	</g>
	<g id="路径_00000157283143165344690170000008545709964746560425_">
		<path d="M20.2,18.3c-0.1,0-0.2,0-0.4-0.1c-0.5-0.2-0.8-0.8-0.6-1.3c0.5-1.3,0.7-2.6,0.7-4c0-1.3-0.2-2.6-0.7-3.8
			c-0.2-0.5,0.1-1.1,0.6-1.3C20.4,7.7,21,8,21.2,8.5c0.5,1.4,0.8,3,0.8,4.5c0,1.6-0.3,3.2-0.9,4.7C21,18.1,20.6,18.3,20.2,18.3z"/>
	</g>
</g>
</svg>
