<?xml version="1.0" encoding="utf-8"?>
<!-- Generator: Adobe Illustrator 26.3.1, SVG Export Plug-In . SVG Version: 6.00 Build 0)  -->
<svg version="1.1" id="图层_1" xmlns="http://www.w3.org/2000/svg" xmlns:xlink="http://www.w3.org/1999/xlink" x="0px" y="0px"
	 viewBox="0 0 36 36" style="enable-background:new 0 0 36 36;" xml:space="preserve">
<style type="text/css">
	.st0{filter:url(#Adobe_OpacityMaskFilter);}
	.st1{fill-rule:evenodd;clip-rule:evenodd;fill:#FFFFFF;}
	.st2{mask:url(#mask-2_00000060031065050560512800000002631354036432449958_);fill-rule:evenodd;clip-rule:evenodd;}
</style>
<g id="路径">
</g>
<defs>
	<filter id="Adobe_OpacityMaskFilter" filterUnits="userSpaceOnUse" x="8.4" y="5" width="19.1" height="26.1">
		<feColorMatrix  type="matrix" values="1 0 0 0 0  0 1 0 0 0  0 0 1 0 0  0 0 0 1 0"/>
	</filter>
</defs>
<mask maskUnits="userSpaceOnUse" x="8.4" y="5" width="19.1" height="26.1" id="mask-2_00000060031065050560512800000002631354036432449958_">
	<g class="st0">
		<rect id="path-1_00000179626883252438011350000010528127900787403921_" class="st1" width="36" height="36"/>
	</g>
</mask>
<path id="形状结合" class="st2" d="M10,9.1L10,9.1l6.8,6.8l0,0l2.4,2.4l0,0l4.6,4.6l0,0l1.2,1.2l0,0l2.4,2.4l0.1,0.1
	c0.3,0.4,0.3,0.9-0.1,1.3c-0.4,0.4-1,0.4-1.4,0l0,0l0,0l-2.3-2.3l-5.2,5.1c-0.3,0.3-0.6,0.3-0.9,0.3l0,0l0,0c0,0,0,0,0,0
	c-0.4-0.1-0.7-0.5-0.7-1l0-9.3l-6.7,6.7c-0.4,0.4-1,0.4-1.4,0c-0.3-0.3-0.4-0.9-0.1-1.3l0.1-0.1l7.7-7.7l-7.7-7.7l-0.1-0.1
	c-0.3-0.4-0.3-0.9,0.1-1.3C9.1,8.9,9.6,8.8,10,9.1z M18.8,20.7v7l3.5-3.5L18.8,20.7z M18.5,5.3l6.2,6.1c0.4,0.4,0.4,0.9,0.1,1.3
	l-0.1,0.1c0,0,0,0,0,0l-0.1,0.1l0,0L20.4,17l-1.4-1.4l3.5-3.5l-3.8-3.8l0,7l-2-2l0-7.3c0-0.1,0-0.2,0.1-0.4c0-0.2,0.1-0.3,0.2-0.4
	l0,0C17.5,4.9,18.1,4.9,18.5,5.3z"/>
</svg>
