<?xml version="1.0" encoding="utf-8"?>
<!-- Generator: Adobe Illustrator 26.3.1, SVG Export Plug-In . SVG Version: 6.00 Build 0)  -->
<svg version="1.1" id="图层_1" xmlns="http://www.w3.org/2000/svg" xmlns:xlink="http://www.w3.org/1999/xlink" x="0px" y="0px"
	 viewBox="0 0 36 36" style="enable-background:new 0 0 36 36;" xml:space="preserve">
<style type="text/css">
	.st0{fill-rule:evenodd;clip-rule:evenodd;}
	.st1{fill:#989898;}
</style>
<g id="编组" transform="translate(5.530000, 9.500000)">
	<g id="椭圆形">
		<circle class="st0" cx="12.6" cy="16" r="2"/>
	</g>
	<g id="路径">
		<path d="M6.9,12.6c-0.3,0-0.6-0.1-0.8-0.4c-0.3-0.4-0.2-1.1,0.2-1.4c1.8-1.3,4-2.1,6.2-2.1c2.3,0,4.4,0.7,6.2,2.1
			c0.4,0.3,0.5,1,0.2,1.4c-0.3,0.4-1,0.5-1.4,0.2c-1.5-1.1-3.2-1.7-5-1.7c-1.8,0-3.6,0.6-5.1,1.7C7.3,12.5,7.1,12.6,6.9,12.6z"/>
	</g>
	<g id="路径_00000132068846769219075680000007034506455558779530_">
		<path class="st1" d="M3.8,9.3C3.5,9.3,3.2,9.1,3,8.9C2.7,8.5,2.7,7.9,3.1,7.5C5.8,5.2,9.1,4,12.6,4C16,4,19.4,5.2,22,7.5
			c0.4,0.4,0.5,1,0.1,1.4c-0.4,0.4-1,0.5-1.4,0.1c-2.3-1.9-5.1-3-8.1-3c-3,0-5.9,1.1-8.1,3C4.3,9.2,4,9.3,3.8,9.3z"/>
	</g>
	<g id="路径_00000117662586083101244120000014579636099431692451_">
		<path class="st1" d="M24.9,5.4c-0.2,0-0.4-0.1-0.6-0.2C20.9,2.4,16.7,1,12.3,1C8.1,1,4,2.4,0.6,5C0.2,5.3-0.5,5.2-0.8,4.8
			C-1.1,4.4-1,3.7-0.6,3.4C3.1,0.5,7.6-1,12.3-1c4.9,0,9.4,1.6,13.2,4.6C26,4,26.1,4.6,25.7,5C25.5,5.3,25.2,5.4,24.9,5.4z"/>
	</g>
</g>
</svg>
