<?xml version="1.0" encoding="utf-8"?>
<!-- Generator: Adobe Illustrator 26.3.1, SVG Export Plug-In . SVG Version: 6.00 Build 0)  -->
<svg version="1.1" id="图层_1" xmlns="http://www.w3.org/2000/svg" xmlns:xlink="http://www.w3.org/1999/xlink" x="0px" y="0px"
	 viewBox="0 0 36 36" style="enable-background:new 0 0 36 36;" xml:space="preserve">
<g>
	<path d="M8.6,9C8.3,8.7,7.7,8.7,7.3,9L7.2,9c-0.4,0.4-0.4,1,0,1.4L8,11.3c-1,0.5-2,1.2-2.9,1.9c-0.4,0.3-0.5,1-0.2,1.4
		c0.3,0.4,1,0.5,1.4,0.2c1-0.8,2.1-1.4,3.2-2l2.5,2.5c-1.1,0.5-2.2,1.2-3.1,2c-0.4,0.4-0.5,1-0.1,1.4c0.4,0.4,1,0.5,1.4,0.1
		c1-0.9,2.1-1.5,3.3-2l2.1,2.1c-1.3,0.3-2.5,0.9-3.6,1.7c-0.4,0.3-0.5,1-0.2,1.4c0.3,0.4,1,0.5,1.4,0.2c1.2-0.9,2.6-1.4,4.1-1.6
		l6.4,6.4c0.4,0.4,1,0.4,1.4,0c0.4-0.4,0.4-1,0-1.4L8.6,9z"/>
	<circle cx="18.3" cy="25.5" r="1.8"/>
	<path d="M24.6,20.6c-1.1-0.8-2.4-1.4-3.7-1.7l-0.2,0l3.5,3.5c0.2-0.1,0.4-0.2,0.5-0.4C25.1,21.5,25,20.9,24.6,20.6z"/>
	<path d="M31.3,13.4c-3.8-3-8.4-4.6-13.2-4.6c-2,0-4,0.3-5.9,0.8l-0.5,0.2l1.6,1.6l0.3-0.1c1.5-0.4,3-0.5,4.5-0.5
		c4.4,0,8.6,1.5,12,4.2c0.4,0.3,1.1,0.3,1.4-0.2S31.7,13.7,31.3,13.4z"/>
	<path d="M18.3,13.8c-0.8,0-1.6,0.1-2.4,0.2l0,0l1.8,1.8c0.2,0,0.4,0,0.6,0c3,0,5.9,1.1,8.1,3c0.4,0.4,1.1,0.3,1.4-0.1
		c0.4-0.4,0.3-1.1-0.1-1.4C25.1,15,21.8,13.8,18.3,13.8z"/>
</g>
</svg>
