<?xml version="1.0" encoding="utf-8"?>
<!-- Generator: Adobe Illustrator 26.3.1, SVG Export Plug-In . SVG Version: 6.00 Build 0)  -->
<svg version="1.1" id="图层_1" xmlns="http://www.w3.org/2000/svg" xmlns:xlink="http://www.w3.org/1999/xlink" x="0px" y="0px"
	 viewBox="0 0 36 36" style="enable-background:new 0 0 36 36;" xml:space="preserve">
<path id="形状结合" d="M25.5,23c2.5,0,4.5-2,4.5-4.5c0-2.3-1.7-4.2-3.9-4.5l-0.2,0l-1.6-0.1l-0.2-1.5c-0.4-2.4-2.9-4.3-6-4.3
	c-3,0-5.5,1.8-6,4.1l0,0.2l-0.3,1.6L10.2,14C7.8,14.2,6,16.1,6,18.5c0,2.4,1.9,4.4,4.3,4.5l0.2,0h1.3v2h-1.3C6.9,25,4,22.1,4,18.5
	c0-3.4,2.7-6.3,6.1-6.5c0.6-3.4,3.9-6,8-6c4.1,0,7.5,2.6,8,6c3.3,0.3,5.9,3.1,5.9,6.5c0,3.6-2.9,6.5-6.5,6.5h-0.3v-2H25.5z M12,23
	c0.6,0,1,0.4,1,1s-0.4,1-1,1h-1v-2H12z M25.3,23v2H25c-0.6,0-1-0.4-1-1s0.4-1,1-1l0,0H25.3z"/>
<g id="形状结合_00000108996395984251351330000017020681583015056038_">
	<path d="M21,28c-0.3,0-0.5-0.1-0.7-0.3l-1.8-1.8l-1.8,1.8c-0.4,0.4-1,0.4-1.4,0s-0.4-1,0-1.4l1.8-1.8l-1.8-1.8
		c-0.4-0.4-0.4-1,0-1.4s1-0.4,1.4,0l1.8,1.8l1.8-1.8c0.4-0.4,1-0.4,1.4,0s0.4,1,0,1.4l-1.8,1.8l1.8,1.8c0.4,0.4,0.4,1,0,1.4
		C21.5,27.9,21.2,28,21,28z"/>
</g>
</svg>
