<?xml version="1.0" encoding="utf-8"?>
<!-- Generator: Adobe Illustrator 26.3.1, SVG Export Plug-In . SVG Version: 6.00 Build 0)  -->
<svg version="1.1" id="图层_1" xmlns="http://www.w3.org/2000/svg" xmlns:xlink="http://www.w3.org/1999/xlink" x="0px" y="0px"
	 viewBox="0 0 36 36" style="enable-background:new 0 0 36 36;" xml:space="preserve">
<style type="text/css">
	.st0{fill-rule:evenodd;clip-rule:evenodd;fill:#FFFFFF;}
	.st1{fill:#FFFFFF;}
	.st2{fill:#686868;}
</style>
<g id="椭圆形">
	<circle class="st0" cx="18.1" cy="25.5" r="2"/>
</g>
<g id="路径">
	<path class="st1" d="M12.5,22.1c-0.3,0-0.6-0.1-0.8-0.4c-0.3-0.4-0.2-1.1,0.2-1.4c1.8-1.3,4-2.1,6.2-2.1c2.3,0,4.4,0.7,6.2,2.1
		c0.4,0.3,0.5,1,0.2,1.4c-0.3,0.4-1,0.5-1.4,0.2c-1.5-1.1-3.2-1.7-5-1.7c-1.8,0-3.6,0.6-5.1,1.7C12.9,22,12.7,22.1,12.5,22.1z"/>
</g>
<g id="路径_00000041988744153072593060000011367629584559845783_">
	<path class="st2" d="M9.3,18.8c-0.3,0-0.6-0.1-0.8-0.3C8.2,18,8.3,17.4,8.7,17c2.6-2.3,6-3.5,9.4-3.5c3.5,0,6.8,1.2,9.4,3.5
		c0.4,0.4,0.5,1,0.1,1.4c-0.4,0.4-1,0.5-1.4,0.1c-2.3-1.9-5.1-3-8.1-3c-3,0-5.9,1.1-8.1,3C9.8,18.7,9.6,18.8,9.3,18.8z"/>
</g>
<g id="路径_00000041264896069851146500000000053651633848751793_">
	<path class="st2" d="M30.5,14.9c-0.2,0-0.4-0.1-0.6-0.2c-3.4-2.7-7.6-4.2-12-4.2c-4.3,0-8.3,1.4-11.7,4c-0.4,0.3-1.1,0.3-1.4-0.2
		c-0.3-0.4-0.3-1.1,0.2-1.4c3.7-2.9,8.2-4.4,12.9-4.4c4.9,0,9.4,1.6,13.2,4.6c0.4,0.3,0.5,1,0.2,1.4C31.1,14.8,30.8,14.9,30.5,14.9z
		"/>
</g>
</svg>
