<?xml version="1.0" encoding="utf-8"?>
<!-- Generator: Adobe Illustrator 26.3.1, SVG Export Plug-In . SVG Version: 6.00 Build 0)  -->
<svg version="1.1" id="图层_1" xmlns="http://www.w3.org/2000/svg" xmlns:xlink="http://www.w3.org/1999/xlink" x="0px" y="0px"
	 viewBox="0 0 36 36" style="enable-background:new 0 0 36 36;" xml:space="preserve">
<g id="路径">
</g>
<g>
	<path d="M29.7,27.8l-1-1c0,0,0,0,0,0L27,25.1v0l-2.9-2.9c0,0,0,0,0,0l-1.6-1.6c0,0,0,0,0,0l-9.9-9.9c0,0,0,0,0,0l-1.4-1.4
		c0,0,0,0,0,0l-2-2c-0.4-0.4-1-0.4-1.4,0c0,0,0,0,0,0c-0.4,0.4-0.4,1,0,1.4l2,2C8.1,12.6,7,15.2,7,18v8l0,0c0.2,1.7,1.7,3,3.5,3
		c1.9,0,3.5-1.6,3.5-3.5V22l0-0.1c-0.1-1-0.9-1.9-2-1.9H9v-2l0-0.3c0.1-2.1,0.9-4.1,2.2-5.6L22,22.9v2.6c0,1.9,1.6,3.5,3.5,3.5
		c0.7,0,1.4-0.2,2-0.6l0.8,0.8c0.4,0.4,1,0.4,1.4,0c0,0,0,0,0,0C30.1,28.8,30.1,28.2,29.7,27.8z M9,22.4c0-0.2,0.2-0.4,0.5-0.4h2
		c0.3,0,0.5,0.2,0.5,0.5v3l0,0.1c-0.1,0.8-0.7,1.4-1.5,1.4S9.1,26.4,9,25.6l0-0.1L9,22.4L9,22.4z M25.5,27c-0.8,0-1.5-0.7-1.5-1.5
		v-0.6l2,2C25.8,27,25.7,27,25.5,27z"/>
	<path d="M18,9l0.3,0c4.8,0.1,8.7,4.1,8.7,9v2h-2.3l4.3,4.3V18c0-6.1-4.9-11-11-11c-1.8,0-3.5,0.4-5,1.2l1.5,1.5
		C15.5,9.3,16.7,9,18,9z"/>
</g>
</svg>
