<?xml version="1.0" encoding="utf-8"?>
<!-- Generator: Adobe Illustrator 26.3.1, SVG Export Plug-In . SVG Version: 6.00 Build 0)  -->
<svg version="1.1" id="图层_1" xmlns="http://www.w3.org/2000/svg" xmlns:xlink="http://www.w3.org/1999/xlink" x="0px" y="0px"
	 viewBox="0 0 36 36" style="enable-background:new 0 0 36 36;" xml:space="preserve">
<style type="text/css">
	.st0{fill-rule:evenodd;clip-rule:evenodd;}
</style>
<g>
	<path class="st0" d="M29,13.2c0-0.2-0.1-0.5-0.2-0.6l-5.3-5.3l-0.1-0.1C23.2,7.1,23,7,22.8,7l0,0l-8.5,0C13,7,12,8,12,9.3V10H9.2
		C8,10,7,11,7,12.3v14.4C7,28,8,29,9.2,29h11.6c1.2,0,2.2-1,2.2-2.3V26h3.7c1.3,0,2.3-1,2.3-2.3L29,13.2z M23,9.6l2.4,2.4l-1.8,0
		c-0.3,0-0.5-0.2-0.5-0.5l0-0.1V9.6z M21,26.4c0,0.3-0.2,0.5-0.5,0.6l-0.1,0h-11C9.3,27,9,26.8,9,26.5l0-0.1V12.6
		C9,12.3,9.2,12,9.5,12l0.1,0l2.5,0v11.7c0,1.3,1,2.3,2.3,2.3H21V26.4z M26.6,24L26.6,24l-12.1,0c-0.3,0-0.5-0.2-0.5-0.5l0-0.1V9.6
		C14,9.3,14.2,9,14.5,9l0.1,0H21v2.7c0,1.3,1,2.3,2.2,2.3h3.9v9.4C27.1,23.7,26.9,24,26.6,24z"/>
	<path class="st0" d="M24,16h-7c-0.6,0-1,0.4-1,1s0.4,1,1,1h7c0.6,0,1-0.4,1-1S24.6,16,24,16z"/>
	<path class="st0" d="M24,20h-7c-0.6,0-1,0.4-1,1s0.4,1,1,1h7c0.6,0,1-0.4,1-1S24.6,20,24,20z"/>
</g>
</svg>
