<?xml version="1.0" encoding="utf-8"?>
<!-- Generator: Adobe Illustrator 26.3.1, SVG Export Plug-In . SVG Version: 6.00 Build 0)  -->
<svg version="1.1" id="图层_1" xmlns="http://www.w3.org/2000/svg" xmlns:xlink="http://www.w3.org/1999/xlink" x="0px" y="0px"
	 viewBox="0 0 36 36" style="enable-background:new 0 0 36 36;" xml:space="preserve">
<g>
	<path d="M21.6,26.7C21.6,26.7,21.6,26.7,21.6,26.7L21.6,26.7l-0.3,0c-3.3,1.2-7.1,0.3-9.6-2.2c-3-3-3.6-7.6-1.4-11.2V14
		c0,0.6,0.4,1,1,1s1-0.4,1-1v-3.5c0-0.2-0.1-0.4-0.2-0.6c-0.2-0.3-0.5-0.4-0.8-0.4H7.8c-0.6,0-1,0.4-1,1s0.4,1,1,1h1.3
		C5.9,15.9,6.4,22.1,10.3,26c2.2,2.2,5,3.3,7.9,3.3c1.2,0,2.5-0.2,3.7-0.6l0,0c0,0,0,0,0.1,0l0.3-0.1l0,0c0.2-0.2,0.4-0.5,0.4-0.8
		C22.6,27.1,22.1,26.7,21.6,26.7z"/>
	<path d="M29,24.2h-1.4c2.9-4.5,2.4-10.3-1.5-14.1c-2.9-2.9-7.1-4-11-2.9c-0.4,0.1-0.7,0.5-0.7,1c0,0.6,0.4,1,1,1
		c0.1,0,0.2,0,0.3-0.1c3.2-0.9,6.6,0,9,2.4c2.8,2.8,3.5,7.1,1.8,10.6v-0.4c0-0.6-0.4-1-1-1s-1,0.4-1,1v3.5c0,0.3,0.2,0.7,0.4,0.8
		c0.2,0.1,0.4,0.2,0.6,0.2H29c0.6,0,1-0.4,1-1S29.6,24.2,29,24.2z"/>
</g>
</svg>
