<?xml version="1.0" encoding="utf-8"?>
<!-- Generator: Adobe Illustrator 26.3.1, SVG Export Plug-In . SVG Version: 6.00 Build 0)  -->
<svg version="1.1" id="图层_1" xmlns="http://www.w3.org/2000/svg" xmlns:xlink="http://www.w3.org/1999/xlink" x="0px" y="0px"
	 viewBox="0 0 36 36" style="enable-background:new 0 0 36 36;" xml:space="preserve">
<g id="ic_StatusBar_cloud">
	<g id="形状结合备份-3">
		<path d="M25.5,28h-15c-1.7,0-3.4-0.7-4.6-1.9C4.7,24.9,4,23.2,4,21.5c0-1.7,0.6-3.2,1.8-4.4c1.1-1.2,2.7-1.9,4.3-2c0,0,0,0,0,0
			c0.3-1.7,1.2-3.2,2.7-4.3C14.3,9.6,16.1,9,18.1,9c1.9,0,3.8,0.6,5.3,1.7c1.5,1.1,2.4,2.6,2.7,4.3c1.6,0.1,3.1,0.9,4.2,2.1
			c1.1,1.2,1.7,2.8,1.7,4.4c0,1.7-0.7,3.4-1.9,4.6C28.9,27.3,27.2,28,25.5,28z M10.5,17c-0.1,0-0.2,0-0.3,0c-1.1,0.1-2.2,0.6-3,1.4
			C6.4,19.3,6,20.4,6,21.5c0,1.2,0.5,2.3,1.3,3.2c0.9,0.9,2,1.3,3.2,1.3h15c1.2,0,2.3-0.5,3.2-1.3c0.9-0.8,1.3-2,1.3-3.2
			c0-1.1-0.4-2.2-1.2-3c-0.8-0.8-1.8-1.3-2.9-1.4c-0.2,0-0.5,0-0.7,0l-1.1,0.1V16c0-0.2,0-0.4-0.1-0.7c-0.2-1.2-0.9-2.2-1.9-3
			C21,11.5,19.6,11,18.1,11c-1.5,0-3,0.5-4.1,1.3c-1.1,0.8-1.7,1.9-1.9,3c0,0.2-0.1,0.5-0.1,0.7l0,1.1L10.9,17
			C10.8,17,10.6,17,10.5,17z"/>
	</g>
</g>
</svg>
