<?xml version="1.0" encoding="utf-8"?>
<!-- Generator: Adobe Illustrator 26.3.1, SVG Export Plug-In . SVG Version: 6.00 Build 0)  -->
<svg version="1.1" id="图层_1" xmlns="http://www.w3.org/2000/svg" xmlns:xlink="http://www.w3.org/1999/xlink" x="0px" y="0px"
	 viewBox="0 0 36 36" style="enable-background:new 0 0 36 36;" xml:space="preserve">
<g id="形状结合-2" transform="translate(1.001516, 10.001516)">
	<g id="编组-2">
		<path id="形状结合" d="M26.7,0l0.5,0c1.2,0,1.8,0.2,2.4,0.5l0.2,0.1C30.5,1,31,1.5,31.4,2.2l0.1,0.2C31.8,3,31.9,3.6,32,4.8
			l0,0.5l0,0.1l0,0l0,0.3L33,7c0.3,0.4,0.5,0.9,0.5,1.5c0,0.5-0.2,1-0.5,1.5l-1,1.3l0,0.1l0,0.3l0,0.5c0,1.2-0.2,1.8-0.5,2.4
			l-0.1,0.2c-0.4,0.7-0.9,1.3-1.6,1.6l-0.2,0.1c-0.5,0.3-1.2,0.4-2.4,0.5l-0.5,0l-0.1,0l0,0l-21,0l-0.3,0l-0.5,0
			c-1.2,0-1.8-0.2-2.4-0.5l-0.2-0.1C1.5,16,1,15.5,0.6,14.8l-0.1-0.2C0.2,14,0.1,13.4,0,12.2l0-0.5V5.3l0-0.5c0-1.2,0.2-1.8,0.5-2.4
			l0.1-0.2C1,1.5,1.5,1,2.2,0.6l0.2-0.1C3,0.2,3.6,0.1,4.8,0l0.5,0H26.7z M5.6,2L5.1,2L4.7,2c-0.8,0-1.2,0.1-1.5,0.3
			C2.8,2.5,2.5,2.8,2.3,3.2C2.1,3.5,2.1,3.9,2,4.7l0,0.4c0,0.1,0,0.2,0,0.2v6.3l0,0.4c0,0.9,0.1,1.3,0.3,1.7
			c0.2,0.4,0.5,0.6,0.8,0.8c0.4,0.2,0.7,0.3,1.5,0.3l0.4,0l0.5,0l21.1,0l0.4,0c0.9,0,1.3-0.1,1.7-0.3c0.4-0.2,0.6-0.5,0.8-0.8
			c0.2-0.4,0.3-0.7,0.3-1.5l0-0.4l0-0.5l0-6.1l0-0.4c0-0.9-0.1-1.3-0.3-1.7c-0.2-0.4-0.5-0.6-0.8-0.8c-0.4-0.2-0.7-0.3-1.5-0.3
			l-0.4,0c-0.1,0-0.2,0-0.2,0L5.6,2z"/>
	</g>
</g>
<g id="编组-3" transform="translate(26.884608, 24.100000)">
</g>
</svg>
