<?xml version="1.0" encoding="utf-8"?>
<!-- Generator: Adobe Illustrator 26.3.1, SVG Export Plug-In . SVG Version: 6.00 Build 0)  -->
<svg version="1.1" id="图层_1" xmlns="http://www.w3.org/2000/svg" xmlns:xlink="http://www.w3.org/1999/xlink" x="0px" y="0px"
	 viewBox="0 0 36 36" style="enable-background:new 0 0 36 36;" xml:space="preserve">
<g id="编组" transform="translate(6.000000, 5.000000)">
	<path id="矩形" d="M21,0c1.7,0,3,1.3,3,3v20c0,1.7-1.3,3-3,3H3c-1.7,0-3-1.3-3-3V3c0-1.7,1.3-3,3-3H21z M21,2H3
		C2.5,2,2.1,2.4,2,2.9L2,3v20c0,0.5,0.4,0.9,0.9,1L3,24h18c0.5,0,0.9-0.4,1-0.9l0-0.1V3c0-0.5-0.4-0.9-0.9-1L21,2z"/>
	<path id="矩形备份-7" d="M16,21H8c-0.6,0-1-0.4-1-1s0.4-1,1-1h8c0.6,0,1,0.4,1,1S16.6,21,16,21z"/>
	<path id="形状结合" d="M11.7,16.6C11.6,16.6,11.6,16.6,11.7,16.6c-0.1,0-0.1,0-0.1,0c0,0,0,0,0,0c0,0,0,0-0.1,0c0,0,0,0,0,0
		c0,0,0,0-0.1,0c0,0,0,0,0,0c-0.1,0-0.1-0.1-0.1-0.1c0,0-0.1-0.1-0.1-0.1l0.1,0c0,0,0,0,0,0l0,0l0,0l0,0L6.8,12
		c-0.3-0.4-0.4-0.9-0.1-1.3l0.1-0.1l0,0l0,0c0.4-0.4,1-0.4,1.3,0l0,0l2.3,2.4l0-7.5c0-0.6,0.4-1,1-1s1,0.4,1,1l0,8l2.7-2.8
		c0.4-0.4,1-0.4,1.3,0l0,0l0,0c0.4,0.4,0.4,1,0,1.4l-4.2,4.3l0,0c0,0,0,0,0,0c0,0,0,0,0,0l0,0c0,0-0.1,0.1-0.1,0.1c0,0,0,0,0,0
		c0,0,0,0,0,0c0,0,0,0-0.1,0c0,0,0,0-0.1,0c0,0,0,0,0,0c0,0,0,0,0,0c0,0,0,0-0.1,0c0,0,0,0-0.1,0c0,0,0,0,0,0c0,0,0,0-0.1,0
		C11.8,16.6,11.8,16.6,11.7,16.6L11.7,16.6L11.7,16.6z"/>
</g>
</svg>
