<?xml version="1.0" encoding="utf-8"?>
<!-- Generator: Adobe Illustrator 26.3.1, SVG Export Plug-In . SVG Version: 6.00 Build 0)  -->
<svg version="1.1" id="图层_1" xmlns="http://www.w3.org/2000/svg" xmlns:xlink="http://www.w3.org/1999/xlink" x="0px" y="0px"
	 viewBox="0 0 36 36" style="enable-background:new 0 0 36 36;" xml:space="preserve">
<style type="text/css">
	.st0{fill-rule:evenodd;clip-rule:evenodd;}
</style>
<path id="路径" class="st0" d="M27.2,8.8c0.4,0.4,0.4,1,0,1.4L19.4,18l7.8,7.8c0.4,0.4,0.4,1,0,1.4s-1,0.4-1.4,0L18,19.4l-7.8,7.8
	c-0.4,0.4-1,0.4-1.4,0c-0.4-0.4-0.4-1,0-1.4l7.8-7.8l-7.8-7.8c-0.4-0.4-0.4-1,0-1.4c0.4-0.4,1-0.4,1.4,0l7.8,7.8l7.8-7.8
	C26.2,8.4,26.8,8.4,27.2,8.8z"/>
</svg>
