<?xml version="1.0" encoding="utf-8"?>
<!-- Generator: Adobe Illustrator 26.3.1, SVG Export Plug-In . SVG Version: 6.00 Build 0)  -->
<svg version="1.1" id="图层_1" xmlns="http://www.w3.org/2000/svg" xmlns:xlink="http://www.w3.org/1999/xlink" x="0px" y="0px"
	 viewBox="0 0 36 36" style="enable-background:new 0 0 36 36;" xml:space="preserve">
<style type="text/css">
	.st0{fill:#FFFFFF;}
	.st1{fill:none;stroke:#FFFFFF;stroke-width:2;}
</style>
<g id="Rectangle">
	<path class="st0" d="M27.4,27H6.6c-1.7,0-2.5-0.1-3.4-0.6C2.5,26,2,25.5,1.6,24.8C1.1,23.9,1,23.1,1,21.4v-5.8
		c0-1.7,0.1-2.5,0.6-3.4C2,11.5,2.5,11,3.2,10.6C4.1,10.1,4.9,10,6.6,10h20.8c1.7,0,2.5,0.1,3.4,0.6c0.7,0.4,1.3,0.9,1.7,1.7
		c0.4,0.8,0.6,1.6,0.6,3.4v5.8c0,1.7-0.1,2.5-0.6,3.4c-0.4,0.7-0.9,1.3-1.7,1.6C29.9,26.9,29.1,27,27.4,27z M6.6,12
		c-1.6,0-2,0.1-2.4,0.3c-0.4,0.2-0.6,0.5-0.8,0.8C3.1,13.6,3,14,3,15.6v5.8c0,1.6,0.1,2,0.3,2.4c0.2,0.4,0.5,0.6,0.8,0.8
		C4.6,24.9,5,25,6.6,25h20.8c1.6,0,2-0.1,2.4-0.3c0.4-0.2,0.6-0.5,0.8-0.8c0.2-0.4,0.3-0.8,0.3-2.4v-5.8c0-1.6-0.1-2-0.3-2.4
		c-0.2-0.4-0.5-0.6-0.8-0.8C29.4,12.1,29,12,27.4,12H6.6z"/>
</g>
<g id="Rectangle_00000075844949438074808170000003652509675399656113_">
	<path class="st1" d="M1,10"/>
</g>
<path class="st0" d="M18,21.5c0.7,0,1.3,0.2,1.8,0.7c0.5,0.5,0.7,1,0.7,1.8c0,0.7-0.3,1.3-0.7,1.8c-0.5,0.5-1.1,0.7-1.8,0.7
	c-0.7,0-1.3-0.3-1.8-0.7c-0.5-0.5-0.7-1.1-0.7-1.8c0-0.7,0.3-1.3,0.7-1.8C16.7,21.7,17.3,21.5,18,21.5L18,21.5z M18.2,9
	c1.4,0,2.6,0.5,3.5,1.4c0.9,0.9,1.3,2.1,1.3,3.6c0,1.2-0.3,2.3-0.8,3.1c-0.2,0.3-0.7,0.8-1.6,1.8c-0.2,0.2-0.4,0.5-0.5,0.8
	c-0.2,0.5-0.2,1.1-0.1,1.8l0,0l-3.2,0.7c-0.8-2-0.7-3.1-0.3-3.9c0.3-0.6,1-1.6,2.1-2.8c0.4-0.6,0.6-0.9,0.6-1.3
	c0-0.4-0.1-0.8-0.3-1.1c-0.2-0.2-0.4-0.3-0.7-0.3c-0.4,0-0.7,0.1-0.9,0.4c-0.4,0.6-0.4,1.5-0.3,2.6l0,0H13c-0.2-2.3,0.3-4,1.3-5.2
	C15.3,9.6,16.5,9,18.2,9L18.2,9z"/>
<path d="M18,27.5c-1,0-1.8-0.4-2.5-1c-0.7-0.7-1-1.5-1-2.5c0-0.9,0.3-1.7,0.9-2.4c-0.5-1.5-0.4-2.6,0.1-3.8c0.1-0.3,0.3-0.6,0.6-1
	h-3.9L12,16c-0.2-2.5,0.3-4.5,1.5-5.9c1.1-1.3,2.7-2,4.6-2c1.7,0,3.1,0.6,4.2,1.7c1.1,1.1,1.6,2.6,1.6,4.3c0,1.4-0.3,2.6-1,3.6
	c-0.1,0.1-0.4,0.5-1.7,1.9c-0.2,0.2-0.3,0.3-0.3,0.5c-0.1,0.3-0.2,0.6-0.1,1.2l0.2,0.9l0,0c0.3,0.5,0.5,1.1,0.5,1.8
	c0,1-0.3,1.8-1,2.5C19.8,27.2,18.9,27.5,18,27.5z M16.7,23.2c-0.1,0.2-0.2,0.5-0.2,0.8c0,0.4,0.1,0.8,0.4,1.1c0.6,0.6,1.5,0.6,2.1,0
	c0.3-0.3,0.4-0.6,0.4-1.1c0-0.4-0.1-0.8-0.4-1.1c-0.1-0.1-0.2-0.2-0.3-0.2L16.7,23.2z M18.1,11.9c0.6,0,1.1,0.2,1.5,0.6
	c0.4,0.5,0.5,1,0.5,1.7c0,0.7-0.4,1.3-0.8,1.8l-0.1,0.1c-1.4,1.5-1.8,2.2-1.9,2.5c-0.1,0.3-0.4,0.8-0.1,1.9c0.5-0.1,1.1-0.1,1.7,0
	c0-0.4,0.1-0.9,0.3-1.3c0.2-0.4,0.4-0.7,0.7-1.1c1.1-1.2,1.4-1.5,1.5-1.6c0.4-0.7,0.7-1.5,0.7-2.5c0-1.2-0.4-2.2-1.1-3
	c-0.7-0.7-1.6-1.1-2.8-1.1c-1.3,0-2.3,0.4-3.1,1.3c-0.7,0.9-1.1,2.1-1.1,3.6h1.9c0-0.9,0.1-1.6,0.5-2.1
	C16.6,12.4,17.1,11.9,18.1,11.9z M18,13.9c-0.1,0.2-0.1,0.5-0.1,0.8c0.1-0.2,0.2-0.3,0.2-0.4C18.1,14.1,18.1,14,18,13.9
	C18,13.9,18,13.9,18,13.9z M18.1,13.8C18.1,13.8,18.1,13.8,18.1,13.8C18.1,13.8,18.1,13.8,18.1,13.8z"/>
</svg>
