<?xml version="1.0" encoding="UTF-8"?>
<svg width="11px" height="36px" viewBox="0 0 11 36" version="1.1" xmlns="http://www.w3.org/2000/svg" xmlns:xlink="http://www.w3.org/1999/xlink">
    <title>stat_sys_plug</title>
    <g id="stat_sys_plug" stroke="none" stroke-width="1" fill="none" fill-rule="evenodd" opacity="0.9">
        <g id="编组" transform="translate(1.600000, 12.000000)" fill="#000000">
            <path d="M5.6,0 C6.0418278,2.98598523e-17 6.4,0.3581722 6.4,0.8 L6.4,2.4 L6.71044779,2.4 C7.42264781,2.4 8,2.97735219 8,3.68955221 L8,9.91044779 C8,10.6226478 7.42264781,11.2 6.71044779,11.2 L4.8,11.2 L4.8,16 L3.2,16 L3.2,11.2 L1.28955221,11.2 C0.577352191,11.2 8.72193476e-17,10.6226478 0,9.91044779 L0,3.68955221 C-8.72193476e-17,2.97735219 0.577352191,2.4 1.28955221,2.4 L1.6,2.4 L1.6,0.8 C1.6,0.3581722 1.9581722,1.92184753e-16 2.4,0 C2.8418278,2.98598523e-17 3.2,0.3581722 3.2,0.8 L3.2,2.4 L4.8,2.4 L4.8,0.8 C4.8,0.3581722 5.1581722,1.92184753e-16 5.6,0 Z" id="形状结合"></path>
        </g>
    </g>
</svg>