<?xml version="1.0" encoding="utf-8"?>
<!-- Generator: Adobe Illustrator 26.2.1, SVG Export Plug-In . SVG Version: 6.00 Build 0)  -->
<svg version="1.1" id="图层_1" xmlns="http://www.w3.org/2000/svg" xmlns:xlink="http://www.w3.org/1999/xlink" x="0px" y="0px"
	 viewBox="0 0 63 63" style="enable-background:new 0 0 63 63;" xml:space="preserve">
<style type="text/css">
	.st0{fill:none;stroke:#000000;stroke-width:3;}
	.st1{fill:none;stroke:#000000;stroke-width:1.75;}
</style>
<g id="ic_书架" transform="translate(12.000000, 12.000000)">
	<path id="矩形" class="st0" d="M5,7.5h4c1.9,0,3.5,1.6,3.5,3.5v23c0,1.9-1.6,3.5-3.5,3.5H5c-1.9,0-3.5-1.6-3.5-3.5V11
		C1.5,9.1,3.1,7.5,5,7.5z"/>
	<rect id="矩形_00000101817659192576576610000014693680232536399546_" x="2.9" y="30.9" class="st1" width="8.2" height="1.2"/>
	<rect id="矩形备份-3" x="2.9" y="24.9" class="st1" width="8.2" height="1.2"/>
	<path id="矩形备份-4" class="st1" d="M20.5,7.9L20.5,7.9c-0.3,0-0.6,0.3-0.6,0.6v21c0,0.3,0.3,0.6,0.6,0.6l0,0
		c0.3,0,0.6-0.3,0.6-0.6v-21C21.1,8.2,20.8,7.9,20.5,7.9z"/>
	<rect id="矩形备份-6" x="27.9" y="30.9" class="st1" width="10.2" height="1.2"/>
	<rect id="矩形备份-7" x="27.9" y="24.9" class="st1" width="10.2" height="1.2"/>
	<path id="矩形备份-2" class="st0" d="M32,14.5h2c1.9,0,3.5,1.6,3.5,3.5v16c0,1.9-1.6,3.5-3.5,3.5h-2c-1.9,0-3.5-1.6-3.5-3.5V18
		C28.5,16.1,30.1,14.5,32,14.5z"/>
	<path id="矩形备份" class="st0" d="M16,1.5h9c1.9,0,3.5,1.6,3.5,3.5v29c0,1.9-1.6,3.5-3.5,3.5h-9c-1.9,0-3.5-1.6-3.5-3.5V5
		C12.5,3.1,14.1,1.5,16,1.5z"/>
</g>
</svg>
