<?xml version="1.0" encoding="utf-8"?>
<!-- Generator: Adobe Illustrator 26.2.1, SVG Export Plug-In . SVG Version: 6.00 Build 0)  -->
<svg version="1.1" id="图层_1" xmlns="http://www.w3.org/2000/svg" xmlns:xlink="http://www.w3.org/1999/xlink" x="0px" y="0px"
	 viewBox="0 0 63 63" style="enable-background:new 0 0 63 63;" xml:space="preserve">
<style type="text/css">
	.st0{fill-rule:evenodd;clip-rule:evenodd;}
</style>
<g id="路径">
	<path d="M31.5,52.5c-11.6,0-21-9.4-21-21c0-11.6,9.4-21,21-21c11.6,0,21,9.4,21,21C52.5,43.1,43.1,52.5,31.5,52.5z M31.5,13.5
		c-9.9,0-18,8.1-18,18c0,9.9,8.1,18,18,18c9.9,0,18-8.1,18-18C49.5,21.6,41.4,13.5,31.5,13.5z"/>
</g>
<path id="形状结合" class="st0" d="M41,22c0.6,0.6,0.6,1.5,0,2.1l-7.4,7.4l7.4,7.4c0.6,0.6,0.6,1.5,0,2.1
	c-0.6,0.6-1.5,0.6-2.1,0l-7.4-7.4L24.1,41c-0.6,0.6-1.5,0.6-2.1,0c-0.6-0.6-0.6-1.5,0-2.1l7.4-7.4L22,24.1c-0.6-0.6-0.6-1.5,0-2.1
	c0.6-0.6,1.5-0.6,2.1,0l7.4,7.4l7.4-7.4C39.5,21.4,40.5,21.4,41,22z"/>
</svg>
