<?xml version="1.0" encoding="utf-8"?>
<!-- Generator: Adobe Illustrator 26.2.1, SVG Export Plug-In . SVG Version: 6.00 Build 0)  -->
<svg version="1.1" id="图层_1" xmlns="http://www.w3.org/2000/svg" xmlns:xlink="http://www.w3.org/1999/xlink" x="0px" y="0px"
	 viewBox="0 0 63 63" style="enable-background:new 0 0 63 63;" xml:space="preserve">
<style type="text/css">
	.st0{fill-rule:evenodd;clip-rule:evenodd;}
</style>
<g id="编组_00000124845766547656104840000004283904888050920371_" transform="translate(12.000000, 11.999495)">
	
		<g id="编组-2" transform="translate(24.000252, 16.500252) scale(1, -1) translate(-24.000252, -16.500252) translate(9.000000, 0.000000)">
		<path id="形状结合" d="M26,0c2.2,0,4,1.8,4,4l0,18c0,0.4-0.1,0.8-0.4,1.1l0,0l-9.5,9.5l-0.1,0.1C19.7,32.9,19.3,33,19,33h0H4
			c-2.2,0-4-1.8-4-4V4c0-2.2,1.8-4,4-4H26z M26,3H4C3.5,3,3.1,3.4,3,3.9L3,4v25c0,0.5,0.4,0.9,0.9,1L4,30h12.5v-5.7l0-0.2
			c0.1-2.6,2.2-4.6,4.8-4.6l0,0H27V4c0-0.5-0.4-0.9-0.9-1L26,3z M25.9,22.5h-4.5l-0.2,0c-0.9,0.1-1.7,0.9-1.7,1.8l0,0v4.5L25.9,22.5
			z"/>
		<path id="矩形" class="st0" d="M7.5,16h15c0.8,0,1.5-0.7,1.5-1.5l0,0c0-0.8-0.7-1.5-1.5-1.5h-15C6.7,13,6,13.7,6,14.5l0,0
			C6,15.3,6.7,16,7.5,16z"/>
		<path id="矩形备份-6" class="st0" d="M7.5,10h15c0.8,0,1.5-0.7,1.5-1.5l0,0C24,7.7,23.3,7,22.5,7h-15C6.7,7,6,7.7,6,8.5l0,0
			C6,9.3,6.7,10,7.5,10z"/>
	</g>
	
		<g id="编组-2备份" transform="translate(14.500000, 22.500505) scale(1, -1) translate(-14.500000, -22.500505) translate(0.000000, 6.000505)">
		<path id="形状结合_00000034792606211233821350000010388096047827133117_" d="M25,0c2.2,0,4,1.8,4,4v5h-3V4
			c0-0.5-0.4-0.9-0.9-1L25,3H4C3.5,3,3.1,3.4,3,3.9L3,4v25c0,0.5,0.4,0.9,0.9,1L4,30h7.5l0,3H4c-2.2,0-4-1.8-4-4V4c0-2.2,1.8-4,4-4
			H25z"/>
	</g>
</g>
</svg>
