<?xml version="1.0" encoding="utf-8"?>
<!-- Generator: Adobe Illustrator 26.2.1, SVG Export Plug-In . SVG Version: 6.00 Build 0)  -->
<svg version="1.1" id="图层_1" xmlns="http://www.w3.org/2000/svg" xmlns:xlink="http://www.w3.org/1999/xlink" x="0px" y="0px"
	 viewBox="0 0 63 63" style="enable-background:new 0 0 63 63;" xml:space="preserve">
<style type="text/css">
	.st0{fill-rule:evenodd;clip-rule:evenodd;}
</style>
<path id="形状结合" class="st0" d="M47.4,14.6c0.6,0.6,0.6,1.5,0.1,2L33.6,30.5l13.9,13.9c0.5,0.5,0.4,1.4-0.1,2
	c-0.6,0.6-1.5,0.6-2,0.1L31.5,32.6L17.6,46.6c-0.5,0.5-1.4,0.4-2-0.1s-0.6-1.5-0.1-2l13.9-13.9L15.4,16.6c-0.5-0.5-0.4-1.4,0.1-2
	c0.6-0.6,1.5-0.6,2-0.1l13.9,13.9l13.9-13.9C45.9,13.9,46.8,14,47.4,14.6z"/>
</svg>
