<?xml version="1.0" encoding="utf-8"?>
<!-- Generator: Adobe Illustrator 26.2.1, SVG Export Plug-In . SVG Version: 6.00 Build 0)  -->
<svg version="1.1" id="图层_1" xmlns="http://www.w3.org/2000/svg" xmlns:xlink="http://www.w3.org/1999/xlink" x="0px" y="0px"
	 viewBox="0 0 63 63" style="enable-background:new 0 0 63 63;" xml:space="preserve">
<g id="路径">
	<path d="M41.5,51H15.5c-0.9,0-1.8-0.4-2.5-1c-0.7-0.7-1-1.6-1-2.5V15.5c0-0.9,0.4-1.8,1-2.5s1.5-1,2.5-1h26.1c0.9,0,1.8,0.4,2.5,1
		c0.7,0.7,1,1.6,1,2.5v31.9c0,0.9-0.4,1.8-1,2.5C43.3,50.6,42.5,51,41.5,51z M15.5,15c-0.1,0-0.3,0.1-0.3,0.1
		c-0.1,0.1-0.2,0.2-0.2,0.4v31.9c0,0.2,0.1,0.3,0.2,0.4c0.1,0.1,0.2,0.1,0.3,0.1h26.1c0.1,0,0.3-0.1,0.3-0.1
		c0.1-0.1,0.2-0.2,0.2-0.4V15.5c0-0.2-0.1-0.3-0.2-0.4c-0.1-0.1-0.2-0.1-0.3-0.1H15.5z"/>
</g>
<path id="矩形" d="M25.5,42h6c0.8,0,1.5,0.7,1.5,1.5l0,0c0,0.8-0.7,1.5-1.5,1.5h-6c-0.8,0-1.5-0.7-1.5-1.5l0,0
	C24,42.7,24.7,42,25.5,42z"/>
<path id="矩形_00000077308965379095541470000011256279163767845776_" d="M49.5,16c0.8,0,1.5,0.7,1.5,1.5v26.7c0,0.2,0,0.5-0.1,0.7
	l-0.9,2.2c-0.1,0.2-0.4,0.3-0.6,0.2c-0.1,0-0.2-0.1-0.2-0.2l-1-2.2c-0.1-0.2-0.1-0.5-0.1-0.7V17.5C48,16.7,48.7,16,49.5,16z"/>
</svg>
