<?xml version="1.0" encoding="utf-8"?>
<!-- Generator: Adobe Illustrator 26.3.1, SVG Export Plug-In . SVG Version: 6.00 Build 0)  -->
<svg version="1.1" id="图层_1" xmlns="http://www.w3.org/2000/svg" xmlns:xlink="http://www.w3.org/1999/xlink" x="0px" y="0px"
	 viewBox="0 0 63 63" style="enable-background:new 0 0 63 63;" xml:space="preserve">
<style type="text/css">
	.st0{fill-rule:evenodd;clip-rule:evenodd;}
</style>
<g id="路径" transform="translate(12.000000, 12.000000)">
	<path id="形状结合" class="st0" d="M26.5,0c1.9,0,3.4,1.5,3.5,3.4l0,0.2V7h7.5C38.3,7,39,7.7,39,8.5S38.3,10,37.5,10h-36
		C0.7,10,0,9.3,0,8.5S0.7,7,1.5,7H9V3.6c0-1.9,1.5-3.5,3.3-3.6l0.2,0H26.5z M26.2,3H12.8C12.4,3,12,3.4,12,3.8V7h15V3.8
		C27,3.4,26.6,3,26.2,3z M31.5,13c0.8,0,1.4,0.6,1.5,1.4l0,0.1V35c0,2.2-1.8,4-4,4H10c-2.2,0-4-1.8-4-4V14.5C6,13.7,6.7,13,7.5,13
		c0.8,0,1.4,0.6,1.5,1.4l0,0.1V35c0,0.5,0.4,0.9,0.9,1l0.1,0h19c0.5,0,0.9-0.4,1-0.9l0-0.1V14.5C30,13.7,30.7,13,31.5,13z"/>
	<path id="形状结合_00000172399275826422114540000009959362394535212932_" class="st0" d="M23.8,16.8c0.5-0.5,1.4-0.5,2,0.1
		c0.6,0.6,0.6,1.5,0.1,2l0,0l-4.2,4.2l4.2,4.2c0.5,0.5,0.5,1.4-0.1,2c-0.6,0.6-1.5,0.6-2,0.1l-4.2-4.2l-4.2,4.2
		c-0.5,0.5-1.3,0.5-1.9,0l-0.1-0.1c-0.6-0.6-0.6-1.5-0.1-2l0,0l4.2-4.2l-4.2-4.2c-0.5-0.5-0.5-1.4,0.1-2c0.6-0.6,1.5-0.6,2-0.1
		l4.2,4.2L23.8,16.8z"/>
</g>
</svg>
