<?xml version="1.0" encoding="utf-8"?>
<!-- Generator: Adobe Illustrator 26.2.1, SVG Export Plug-In . SVG Version: 6.00 Build 0)  -->
<svg version="1.1" id="图层_1" xmlns="http://www.w3.org/2000/svg" xmlns:xlink="http://www.w3.org/1999/xlink" x="0px" y="0px"
	 viewBox="0 0 63 63" style="enable-background:new 0 0 63 63;" xml:space="preserve">
<style type="text/css">
	.st0{fill-rule:evenodd;clip-rule:evenodd;}
</style>
<path id="形状结合" d="M42.8,23.5c0.3,0,0.6,0.1,0.8,0.2c0.2,0.1,0.3,0.2,0.5,0.3l0.1,0.1l6.1,5.9c0,0,0,0,0,0
	c0.6,0.6,0.7,1.7,0.1,2.3l-0.1,0.1l-6.2,6.3l0,0c-0.3,0.3-0.8,0.6-1.3,0.6l0,0c-0.4,0-0.9-0.2-1.2-0.5c-0.3-0.3-0.5-0.8-0.5-1.2
	c0,0,0,0,0,0V25.3C41,24.3,41.8,23.5,42.8,23.5z"/>
<path class="st0" d="M49.5,12h-36c-0.8,0-1.5,0.7-1.5,1.5s0.7,1.5,1.5,1.5h36c0.8,0,1.5-0.7,1.5-1.5S50.3,12,49.5,12z"/>
<path id="矩形备份" class="st0" d="M13.5,25h22c0.8,0,1.5,0.7,1.5,1.5l0,0c0,0.8-0.7,1.5-1.5,1.5h-22c-0.8,0-1.5-0.7-1.5-1.5
	l0,0C12,25.7,12.7,25,13.5,25z"/>
<path id="矩形备份-2" class="st0" d="M13.5,36h22c0.8,0,1.5,0.7,1.5,1.5l0,0c0,0.8-0.7,1.5-1.5,1.5h-22c-0.8,0-1.5-0.7-1.5-1.5
	l0,0C12,36.7,12.7,36,13.5,36z"/>
<path id="矩形备份-3" class="st0" d="M13.5,48h36c0.8,0,1.5,0.7,1.5,1.5l0,0c0,0.8-0.7,1.5-1.5,1.5h-36c-0.8,0-1.5-0.7-1.5-1.5
	l0,0C12,48.7,12.7,48,13.5,48z"/>
</svg>
