<?xml version="1.0" encoding="utf-8"?>
<!-- Generator: Adobe Illustrator 26.2.1, SVG Export Plug-In . SVG Version: 6.00 Build 0)  -->
<svg version="1.1" id="图层_1" xmlns="http://www.w3.org/2000/svg" xmlns:xlink="http://www.w3.org/1999/xlink" x="0px" y="0px"
	 viewBox="0 0 63 63" style="enable-background:new 0 0 63 63;" xml:space="preserve">
<style type="text/css">
	.st0{fill-rule:evenodd;clip-rule:evenodd;}
</style>
<g id="形状结合">
	<path class="st0" d="M15,17.5c1.7,0,3-1.3,3-3s-1.3-3-3-3s-3,1.3-3,3S13.3,17.5,15,17.5z M15,34.5c1.7,0,3-1.3,3-3c0-1.7-1.3-3-3-3
		s-3,1.3-3,3C12,33.2,13.3,34.5,15,34.5z M15,51.5c1.7,0,3-1.3,3-3s-1.3-3-3-3s-3,1.3-3,3S13.3,51.5,15,51.5z M22.5,13h27
		c0.8,0,1.5,0.7,1.5,1.5S50.3,16,49.5,16h-27c-0.8,0-1.5-0.7-1.5-1.5S21.7,13,22.5,13z M22.5,30h27c0.8,0,1.5,0.7,1.5,1.5
		S50.3,33,49.5,33h-27c-0.8,0-1.5-0.7-1.5-1.5S21.7,30,22.5,30z M22.5,47h27c0.8,0,1.5,0.7,1.5,1.5S50.3,50,49.5,50h-27
		c-0.8,0-1.5-0.7-1.5-1.5S21.7,47,22.5,47z"/>
</g>
</svg>
