<?xml version="1.0" encoding="utf-8"?>
<!-- Generator: Adobe Illustrator 26.3.1, SVG Export Plug-In . SVG Version: 6.00 Build 0)  -->
<svg version="1.1" id="图层_1" xmlns="http://www.w3.org/2000/svg" xmlns:xlink="http://www.w3.org/1999/xlink" x="0px" y="0px"
	 viewBox="0 0 63 63" style="enable-background:new 0 0 63 63;" xml:space="preserve">
<path id="矩形" d="M47,12c2.4,0,4,1.6,4,4v31c0,2.4-1.6,4-4,4H16c-2.4,0-4-1.6-4-4V16c0-2.4,1.6-4,4-4H47z M47,15H16
	c-0.7,0-1,0.2-1,0.9l0,0.1v31c0,0.7,0.2,1,0.9,1l0.1,0h31c0.7,0,1-0.2,1-0.9l0-0.1V16c0-0.7-0.2-1-0.9-1L47,15z"/>
<path id="路径" d="M23,19c0.8,0,1.4,0.6,1.5,1.4l0,0.1v0c0,4.1,3.2,7.5,7,7.5c3.8,0,6.9-3.2,7-7.2l0-0.3c0-0.8,0.7-1.5,1.5-1.5
	c0.8,0,1.4,0.6,1.5,1.4l0,0.2c0,5.8-4.5,10.5-10,10.5c-5.4,0-9.9-4.5-10-10.2l0-0.3C21.5,19.7,22.2,19,23,19z"/>
</svg>
