<?xml version="1.0" encoding="utf-8"?>
<!-- Generator: Adobe Illustrator 26.2.1, SVG Export Plug-In . SVG Version: 6.00 Build 0)  -->
<svg version="1.1" id="图层_1" xmlns="http://www.w3.org/2000/svg" xmlns:xlink="http://www.w3.org/1999/xlink" x="0px" y="0px"
	 viewBox="0 0 63 63" style="enable-background:new 0 0 63 63;" xml:space="preserve">
<g>
	<path d="M28.6,26.4c-0.6-0.6-1.5-0.6-2.1,0c-0.6,0.6-0.6,1.5,0,2.1l4.5,4.5l-10.4,0c-0.8,0-1.5,0.7-1.5,1.5s0.7,1.5,1.5,1.5l10.4,0
		l-4.5,4.5c-0.6,0.6-0.6,1.5,0,2.1c0.6,0.6,1.5,0.6,2.1,0l7.1-7.1l0.1-0.1c0.5-0.6,0.5-1.5-0.1-2L28.6,26.4z"/>
	<path d="M47,12H19c-2.2,0-4,1.8-4,4v3.6c-1.8,0.9-3,2.8-3,4.9v21c0,3,2.5,5.5,5.5,5.5h21c2.9,0,5.2-2.2,5.5-5h3c2.2,0,4-1.8,4-4V16
		C51,13.8,49.2,12,47,12z M41,45.5c0,1.4-1.1,2.5-2.5,2.5h-21c-1.4,0-2.5-1.1-2.5-2.5v-21c0-1.4,1.1-2.5,2.5-2.5h21
		c1.4,0,2.5,1.1,2.5,2.5V45.5z M48,42l0,0.1c-0.1,0.5-0.5,0.9-1,0.9h-3V24.5c0-3-2.5-5.5-5.5-5.5H18v-3l0-0.1c0.1-0.5,0.5-0.9,1-0.9
		h28l0.1,0c0.5,0.1,0.9,0.5,0.9,1V42z"/>
</g>
</svg>
