<?xml version="1.0" encoding="utf-8"?>
<!-- Generator: Adobe Illustrator 26.3.1, SVG Export Plug-In . SVG Version: 6.00 Build 0)  -->
<svg version="1.1" id="图层_1" xmlns="http://www.w3.org/2000/svg" xmlns:xlink="http://www.w3.org/1999/xlink" x="0px" y="0px"
	 viewBox="0 0 63 63" style="enable-background:new 0 0 63 63;" xml:space="preserve">
<path id="形状结合" d="M22.3,12c0.4,0,0.9,0.2,1.2,0.5l2.9,2.6c0.3,0.3,0.7,0.5,1.2,0.5h19.9c2,0,3.5,1.6,3.5,3.5V35h-3v-8
	c0-0.5-0.4-1-1.1-1H16.1c-0.5,0-0.9,0.3-1,0.9l0,0.1V47c0,0.5,0.3,0.9,0.9,1l0.1,0h21v3H15.5c-2,0-3.5-1.6-3.5-3.5V15.5
	c0-2,1.6-3.5,3.5-3.5H22.3z M21.8,15h-6.3c-0.3,0-0.5,0.2-0.5,0.5l0,0.1l0,7.6c0.4-0.1,0.8-0.2,1.2-0.2h30.6c0.4,0,0.8,0.1,1.2,0.2
	l0-4.1c0-0.3-0.2-0.5-0.5-0.5l-0.1,0H27.6c-1.1,0-2.1-0.4-3-1.1l-0.2-0.2L21.8,15z M49,34h1c0.6,0,1,0.4,1,1v3.5
	c0,0.8-0.7,1.5-1.5,1.5S48,39.3,48,38.5V35C48,34.4,48.4,34,49,34z M37.5,48c0.8,0,1.5,0.7,1.5,1.5S38.3,51,37.5,51H36
	c-0.6,0-1-0.4-1-1v-1c0-0.6,0.4-1,1-1H37.5z M43,37c0.8,0,1.5,0.7,1.5,1.5v4h4c0.8,0,1.5,0.7,1.5,1.5s-0.7,1.5-1.5,1.5h-4v4
	c0,0.8-0.7,1.5-1.5,1.5s-1.5-0.7-1.5-1.5v-4h-4c-0.8,0-1.5-0.7-1.5-1.5s0.7-1.5,1.5-1.5h4v-4C41.5,37.7,42.2,37,43,37z"/>
</svg>
