<?xml version="1.0" encoding="utf-8"?>
<!-- Generator: Adobe Illustrator 26.3.1, SVG Export Plug-In . SVG Version: 6.00 Build 0)  -->
<svg version="1.1" id="图层_1" xmlns="http://www.w3.org/2000/svg" xmlns:xlink="http://www.w3.org/1999/xlink" x="0px" y="0px"
	 viewBox="0 0 63 63" style="enable-background:new 0 0 63 63;" xml:space="preserve">
<style type="text/css">
	.st0{fill-rule:evenodd;clip-rule:evenodd;}
</style>
<g id="编组备份" transform="translate(13.000000, 13.000000)">
	<path id="形状" class="st0" d="M33.2,3H3.8C3.4,3,3,3.4,3,3.8v29.4C3,33.6,3.4,34,3.8,34h29.4c0.5,0,0.8-0.4,0.8-0.8V3.8
		C34,3.4,33.6,3,33.2,3z M3.4,0C1.5,0,0,1.5,0,3.4v30.3C0,35.5,1.5,37,3.4,37h30.3c1.9,0,3.4-1.5,3.4-3.4V3.4C37,1.5,35.5,0,33.6,0
		H3.4z"/>
	<path id="形状结合" class="st0" d="M6,7.4C6,6.7,6.6,6.1,7.3,6l0.1,0l0,0h9.1C17.4,6,18,6.6,18,7.4v0.1C18,8.4,17.4,9,16.6,9
		L9,9l0,7.6C9,17.4,8.4,18,7.6,18H7.4C6.6,18,6,17.4,6,16.6V7.4z"/>
	<path id="形状结合备份" class="st0" d="M10.1,8L10.1,8L10.1,8L28,26l0-5.5c0-0.8,0.6-1.4,1.4-1.4h0.1c0.8,0,1.4,0.6,1.4,1.4
		v9.1c0,0.8-0.6,1.4-1.4,1.4h-0.1l0,0l-9,0c-0.8,0-1.4-0.6-1.4-1.4v-0.1c0-0.8,0.6-1.4,1.4-1.4l5.5,0L8.1,10.1C7.5,9.5,7.5,8.6,8,8
		C8.6,7.4,9.5,7.4,10.1,8z"/>
</g>
</svg>
