<?xml version="1.0" encoding="utf-8"?>
<!-- Generator: Adobe Illustrator 26.3.1, SVG Export Plug-In . SVG Version: 6.00 Build 0)  -->
<svg version="1.1" id="图层_1" xmlns="http://www.w3.org/2000/svg" xmlns:xlink="http://www.w3.org/1999/xlink" x="0px" y="0px"
	 viewBox="0 0 63 63" style="enable-background:new 0 0 63 63;" xml:space="preserve">
<style type="text/css">
	.st0{fill-rule:evenodd;clip-rule:evenodd;}
</style>
<path id="形状结合备份-2" class="st0" d="M18.5,17c0.8,0,1.5,0.7,1.5,1.5l0,0l0,5.5c0,0.8-0.7,1.5-1.5,1.5S17,24.8,17,24
	l0-0.4c-1.5,2.7-2.2,5.9-1.9,9.2c0.7,8.2,7.5,14.8,15.7,15.1c1.4,0.1,2.7,0,4-0.3c0.5-0.1,0.9,0,1.3,0.3l0.1,0.1
	c0.8,0.8,0.4,2.3-0.8,2.5c-2,0.4-4.1,0.5-6.3,0.2c-8.9-1-16-8.2-17-17.1c-0.6-5.2,0.9-10,3.6-13.8L13,20c-0.8,0-1.5-0.7-1.5-1.5
	S12.2,17,13,17H18.5z M33.8,12.1c8.9,1,16.1,8.2,17.1,17.1c0.5,4.5-0.5,8.7-2.6,12.2l1.3,0c0.8,0,1.5,0.7,1.5,1.5
	c0,0.8-0.7,1.5-1.5,1.5H44c-0.8,0-1.5-0.7-1.5-1.5v-5.5c0-0.8,0.7-1.5,1.5-1.5s1.5,0.7,1.5,1.5l0,2.7c1.8-2.9,2.7-6.4,2.4-10.1
	c-0.6-8.2-7.5-14.8-15.8-15.2c-1.4-0.1-2.7,0.1-4,0.3c-0.5,0.1-0.9,0-1.3-0.3l-0.1-0.1c-0.8-0.8-0.4-2.3,0.8-2.5
	C29.5,12,31.6,11.9,33.8,12.1z"/>
</svg>
