<?xml version="1.0" encoding="utf-8"?>
<!-- Generator: Adobe Illustrator 26.2.1, SVG Export Plug-In . SVG Version: 6.00 Build 0)  -->
<svg version="1.1" id="图层_1" xmlns="http://www.w3.org/2000/svg" xmlns:xlink="http://www.w3.org/1999/xlink" x="0px" y="0px"
	 viewBox="0 0 63 63" style="enable-background:new 0 0 63 63;" xml:space="preserve">
<path d="M49.8,47.7L39.5,37.3c0.1-0.1,0.1-0.1,0.1-0.2c2.4-3,3.6-6.7,3.4-10.5c-0.2-3.8-1.8-7.4-4.5-10.1c-2.9-2.9-6.8-4.5-11-4.5
	s-8,1.6-11,4.5c-2.9,2.9-4.5,6.8-4.5,11s1.6,8,4.5,11c2.7,2.7,6.3,4.3,10.1,4.5c0.3,0,0.6,0,0.9,0c3.5,0,6.9-1.2,9.7-3.4
	c0.1,0,0.1-0.1,0.2-0.1l10.3,10.3c0.6,0.6,1.5,0.6,2.1,0C50.4,49.2,50.4,48.3,49.8,47.7z M35.3,37.3c-2.4,1.9-5.4,2.9-8.5,2.7
	c-3.1-0.2-6-1.5-8.1-3.6C16.3,34,15,30.8,15,27.5s1.3-6.5,3.7-8.8s5.5-3.7,8.8-3.7s6.5,1.3,8.8,3.7c2.2,2.2,3.5,5.1,3.6,8.1
	c0.2,3.1-0.8,6.1-2.7,8.5c-0.4,0.5-0.7,0.8-1,1.1C36.1,36.6,35.7,36.9,35.3,37.3z"/>
</svg>
