<?xml version="1.0" encoding="utf-8"?>
<!-- Generator: Adobe Illustrator 26.3.1, SVG Export Plug-In . SVG Version: 6.00 Build 0)  -->
<svg version="1.1" id="图层_1" xmlns="http://www.w3.org/2000/svg" xmlns:xlink="http://www.w3.org/1999/xlink" x="0px" y="0px"
	 viewBox="0 0 63 63" style="enable-background:new 0 0 63 63;" xml:space="preserve">
<style type="text/css">
	.st0{fill-rule:evenodd;clip-rule:evenodd;}
</style>
<g>
	<path class="st0" d="M32.5,44H12l-0.1,0c-0.5-0.1-0.9-0.5-0.9-1V22.4l15,9.7c0.9,0.6,1.9,0.9,3,0.9s2.1-0.3,3-0.9l15-9.7v4.1
		c0,0.8,0.7,1.5,1.5,1.5s1.5-0.7,1.5-1.5V19c0-2.2-1.8-4-4-4H12c-2.2,0-4,1.8-4,4v24c0,2.2,1.8,4,4,4h20.5c0.8,0,1.5-0.7,1.5-1.5
		S33.3,44,32.5,44z M12,18h34l0.1,0c0.5,0.1,0.8,0.4,0.9,0.9L30.4,29.6c-0.8,0.5-1.9,0.5-2.7,0L11,18.9C11.1,18.4,11.5,18,12,18z"/>
	<path class="st0" d="M50.5,37.7c-0.1-0.2-0.2-0.5-0.4-0.7l0,0l-7-7c-0.6-0.6-1.5-0.6-2.1,0c-0.6,0.6-0.6,1.5,0,2.1l4.4,4.4H33.5
		c-0.8,0-1.5,0.7-1.5,1.5s0.7,1.5,1.5,1.5h12L43,42c-0.1,0.1-0.1,0.2-0.2,0.3L41,44c-0.6,0.6-0.6,1.5,0,2.1c0.6,0.6,1.5,0.6,2.1,0
		l7-7c0.3-0.3,0.4-0.7,0.4-1.1C50.5,38,50.5,37.8,50.5,37.7z"/>
</g>
</svg>
