<?xml version="1.0" encoding="utf-8"?>
<!-- Generator: Adobe Illustrator 26.2.1, SVG Export Plug-In . SVG Version: 6.00 Build 0)  -->
<svg version="1.1" id="图层_1" xmlns="http://www.w3.org/2000/svg" xmlns:xlink="http://www.w3.org/1999/xlink" x="0px" y="0px"
	 viewBox="0 0 63 63" style="enable-background:new 0 0 63 63;" xml:space="preserve">
<g transform="translate(13.250000, 14.000000)">
	<g id="路径">
		<path d="M24,36.5c-0.2,0-0.5,0-0.7-0.1c-0.7-0.2-1.3-0.7-1.7-1.3c-0.7-1.2-1.9-1.9-3.3-1.9c-1.4,0-2.6,0.7-3.3,1.9
			c-0.8,1.4-2.5,1.8-3.9,1L5.7,33c-1.4-0.8-1.8-2.5-1-3.9L5,28.5c0.6-1.1,0.6-2.3,0-3.4s-1.7-1.7-2.9-1.7H1.3
			c-1.6,0-2.8-1.3-2.8-2.8v-6.2c0-1.6,1.3-2.8,2.8-2.8h0.7c1.2,0,2.3-0.6,2.9-1.7c0.6-1.1,0.6-2.3,0-3.4L4.6,5.9
			C3.8,4.5,4.3,2.8,5.7,2L11-1.1c1.4-0.8,3.1-0.3,3.9,1l0.4,0.6c0.6,1.1,1.7,1.7,2.9,1.7c1.2,0,2.3-0.6,2.9-1.7l0.4-0.6
			c0.4-0.7,1-1.1,1.7-1.3c0.7-0.2,1.5-0.1,2.1,0.3L30.8,2c0.7,0.4,1.1,1,1.3,1.7c0.2,0.7,0.1,1.5-0.3,2.1l-0.4,0.6
			c-0.6,1.1-0.6,2.3,0,3.4c0.6,1.1,1.7,1.7,2.9,1.7h0.7c1.6,0,2.8,1.3,2.8,2.8v6.2c0,1.6-1.3,2.8-2.8,2.8h-0.7
			c-1.2,0-2.3,0.6-2.9,1.7c-0.6,1.1-0.6,2.3,0,3.4l0.4,0.6c0.8,1.4,0.3,3.1-1,3.9l-5.4,3.1C24.9,36.4,24.5,36.5,24,36.5z M18.2,30.2
			C18.2,30.2,18.2,30.2,18.2,30.2c2.4,0,4.6,1.2,5.8,3.3l5.1-2.9L28.8,30c-1.2-2-1.2-4.4,0-6.4s3.2-3.2,5.5-3.2h0.6v-5.9h-0.5
			c-2.3,0-4.4-1.2-5.5-3.2c-1.2-2-1.2-4.4,0-6.4l0.3-0.5L24,1.6L23.7,2c-1.2,2-3.2,3.2-5.5,3.2S13.8,4,12.7,2l-0.3-0.5L7.3,4.5
			L7.6,5c1.2,2,1.2,4.4,0,6.4c-1.2,2-3.2,3.2-5.5,3.2H1.5v5.9h0.6c2.3,0,4.4,1.2,5.5,3.2c1.2,2,1.2,4.4,0,6.4l-0.3,0.5l5.1,2.9
			C13.6,31.4,15.8,30.2,18.2,30.2z M29.3,30.4C29.3,30.4,29.3,30.4,29.3,30.4L29.3,30.4z"/>
	</g>
	<g id="椭圆形">
		<path d="M18.5,26.6c-5,0-9-4.1-9-9c0-5,4.1-9,9-9c5,0,9,4.1,9,9C27.6,22.5,23.5,26.6,18.5,26.6z M18.5,11.5c-3.3,0-6,2.7-6,6
			c0,3.3,2.7,6,6,6c3.3,0,6-2.7,6-6C24.6,14.2,21.9,11.5,18.5,11.5z"/>
	</g>
</g>
</svg>
