<?xml version="1.0" encoding="utf-8"?>
<!-- Generator: Adobe Illustrator 26.3.1, SVG Export Plug-In . SVG Version: 6.00 Build 0)  -->
<svg version="1.1" id="图层_1" xmlns="http://www.w3.org/2000/svg" xmlns:xlink="http://www.w3.org/1999/xlink" x="0px" y="0px"
	 viewBox="0 0 63 63" style="enable-background:new 0 0 63 63;" xml:space="preserve">
<style type="text/css">
	.st0{fill:#FFFFFF;}
	.st1{fill-rule:evenodd;clip-rule:evenodd;fill:#FFFFFF;}
</style>
<g id="椭圆形">
	<path class="st0" d="M31.5,54C19.1,54,9,43.9,9,31.5C9,19.1,19.1,9,31.5,9C43.9,9,54,19.1,54,31.5C54,43.9,43.9,54,31.5,54z
		 M31.5,12C20.7,12,12,20.7,12,31.5C12,42.3,20.7,51,31.5,51C42.3,51,51,42.3,51,31.5C51,20.7,42.3,12,31.5,12z"/>
</g>
<g id="椭圆形_00000183217140053034003590000014363353521126532788_">
	<circle class="st1" cx="31.5" cy="31.5" r="18"/>
	<path d="M31.5,51C20.7,51,12,42.3,12,31.5C12,20.7,20.7,12,31.5,12C42.3,12,51,20.7,51,31.5C51,42.3,42.3,51,31.5,51z M31.5,15
		C22.4,15,15,22.4,15,31.5C15,40.6,22.4,48,31.5,48C40.6,48,48,40.6,48,31.5C48,22.4,40.6,15,31.5,15z"/>
</g>
</svg>
